<?xml version="1.0" standalone="no"?>
<!DOCTYPE svg PUBLIC "-//W3C//DTD SVG 1.1//EN" "http://www.w3.org/Graphics/SVG/1.1/DTD/svg11.dtd" >
<svg xmlns="http://www.w3.org/2000/svg" xmlns:xlink="http://www.w3.org/1999/xlink" version="1.1">
<metadata></metadata>
<defs>
<font id="univers57_condensed_oblique" horiz-adv-x="1024" >
<font-face units-per-em="2048" ascent="1638" descent="-410" />
<missing-glyph horiz-adv-x="454" />
<glyph horiz-adv-x="0" />
<glyph horiz-adv-x="0" />
<glyph unicode="&#xd;" horiz-adv-x="512" />
<glyph unicode=" "  horiz-adv-x="454" />
<glyph unicode="&#x09;" horiz-adv-x="454" />
<glyph unicode="&#xa0;" horiz-adv-x="454" />
<glyph unicode="!" horiz-adv-x="681" d="M246 0l45 213h192l-45 -213h-192zM338 342l205 1137h223l-283 -1137h-145z" />
<glyph unicode="&#x22;" horiz-adv-x="512" d="M295 1055l90 424h123l-90 -424h-123zM541 1055l90 424h123l-90 -424h-123z" />
<glyph unicode="#" horiz-adv-x="909" d="M47 0l252 479h-203l60 115h202l121 233h-207l60 115h205l251 479h105l-252 -479h168l248 479h106l-250 -479h209l-59 -115h-209l-121 -233h211l-59 -115h-211l-250 -479h-105l250 479h-163l-254 -479h-105zM465 594h164l121 233h-166z" />
<glyph unicode="$" horiz-adv-x="909" d="M79 297q3 51 11 89t12 46h193q-12 -55 -12 -107.5t15 -93.5t50 -67.5t90 -30.5l109 516q-59 33 -116.5 69t-99.5 83t-60.5 109.5t-0.5 148.5t61.5 156.5t104 120.5t132 79t149.5 29l24 121h88l-24 -121q203 0 278.5 -108.5t32.5 -309.5h-207q27 113 0.5 180.5 t-139.5 73.5l-100 -473q61 -33 125.5 -69t111.5 -85t69.5 -118.5t2.5 -172.5q-23 -106 -77 -181t-122.5 -122t-145.5 -68.5t-142 -21.5l-27 -121h-88l26 121q-109 0 -174 32t-100 81t-44 106.5t-6 108.5zM467 1079q-18 -86 19.5 -137t103.5 -90l92 428q-78 -10 -137.5 -62.5 t-77.5 -138.5zM526 133q92 10 165 67.5t93 155.5q10 45 1 81t-31.5 64.5t-56 54.5t-70.5 48z" />
<glyph unicode="%" horiz-adv-x="1593" d="M355.5 970.5q9.5 69.5 25.5 143.5q14 72 35.5 142.5t59.5 127t97.5 91t153.5 34.5q92 0 137 -34.5t59.5 -91t5.5 -127t-24 -142.5q-16 -74 -36.5 -143.5t-58.5 -123.5t-97.5 -87t-153.5 -33q-92 0 -137 33t-60.5 87t-6 123.5zM362 -74l1045 1626h133l-1048 -1626h-130z M496 910.5q4 -33.5 24.5 -51t63.5 -17.5q45 0 72.5 17.5t46 51t32 86t27.5 121.5q14 70 23.5 122t6 86t-24 51.5t-65.5 17.5t-72.5 -17.5t-46 -51.5t-31.5 -86t-28 -122q-14 -70 -23 -122t-5 -85.5zM975 213q8 70 24 143q14 72 36 142.5t60 127t98.5 91.5t152.5 35t138 -35 t59 -91.5t4 -127t-23 -142.5q-16 -74 -37 -143.5t-58.5 -123.5t-97 -87t-151.5 -33q-94 0 -139.5 33t-59.5 87t-6 124zM1114 152.5q4 -33.5 24.5 -51t65.5 -17.5q43 0 72 17.5t47 51t30.5 86t26.5 121.5q16 70 25.5 122.5t5.5 86t-24.5 51t-65.5 17.5t-72.5 -17.5t-46 -51 t-31 -86t-28.5 -122.5q-14 -70 -23.5 -122t-5.5 -85.5z" />
<glyph unicode="&#x26;" horiz-adv-x="1366" d="M193.5 207q-21.5 80 1.5 186q18 92 57 157.5t93 116t124 92.5t149 85q-25 37 -50 81t-43.5 91t-25.5 98t3 103q18 80 61 136t101.5 91t127 50t138.5 15t129 -17t99 -54t55.5 -93.5t-1.5 -134.5q-12 -57 -45.5 -112.5t-80 -104.5t-100.5 -94t-105 -82l211 -366 q18 37 32.5 75.5t26.5 88t26.5 111.5t30.5 144h168q-25 -119 -49 -207t-50 -152.5t-52.5 -110.5t-55.5 -83l170 -317h-213l-86 152q-109 -104 -214 -143.5t-236 -39.5q-100 0 -183 25.5t-137.5 79t-76 133.5zM387 397q-25 -121 44 -195.5t202 -74.5q100 0 179 33t153 114 l-267 461q-55 -33 -105 -65.5t-91 -71.5t-71 -87t-44 -114zM692 1200q-8 -39 1 -73.5t27.5 -68.5t40.5 -64.5t36 -59.5q31 23 65.5 51.5t66.5 62t55.5 71.5t33.5 81q16 78 -17.5 122t-109.5 44q-72 0 -128 -46t-71 -120z" />
<glyph unicode="'" horiz-adv-x="512" d="M418 1055l90 424h123l-90 -424h-123z" />
<glyph unicode="(" horiz-adv-x="569" d="M210 416.5q5 111.5 30 226.5q25 119 67.5 233.5t97 226t114 223.5t118.5 222h125q-106 -225 -194.5 -452.5t-137.5 -460.5q-47 -223 -55 -441.5t-2 -435.5h-119q-10 109 -23.5 217.5t-19.5 219t-1 222z" />
<glyph unicode=")" horiz-adv-x="569" d="M94 -242q96 217 182 435.5t134 441.5q49 233 57 460.5t0 452.5h125q10 -111 22.5 -222.5t18.5 -223t1 -226t-30 -233.5q-25 -115 -67.5 -226.5t-96 -222t-112 -219t-115.5 -217.5h-119z" />
<glyph unicode="*" horiz-adv-x="909" d="M293 1069l29 135l313 -24l-129 260l137 69l70 -290l196 290l105 -69l-240 -260l326 24l-29 -135l-313 31l131 -266l-133 -66l-76 295l-199 -295l-104 66l241 266z" />
<glyph unicode="+" d="M184 455l27 127h360l97 452h127l-97 -452h361l-27 -127h-360l-97 -455h-126l96 455h-361z" />
<glyph unicode="," horiz-adv-x="454" d="M14 -260l207 473h211l-287 -473h-131z" />
<glyph unicode="-" horiz-adv-x="681" d="M217 479l33 158h450l-32 -158h-451z" />
<glyph unicode="." horiz-adv-x="454" d="M131 0l45 213h193l-45 -213h-193z" />
<glyph unicode="/" horiz-adv-x="569" d="M-90 -197l835 1676h138l-836 -1676h-137z" />
<glyph unicode="0" horiz-adv-x="909" d="M160.5 197.5q-13.5 103.5 9.5 235.5t51 272q31 143 64.5 276t91 236.5t149 165t236.5 61.5t210.5 -61.5t79 -165t-10 -236.5t-54.5 -276q-29 -139 -62.5 -271.5t-92 -236t-149.5 -166t-234 -62.5q-145 0 -210 62.5t-78.5 166zM344 308q0 -79 29.5 -130t107.5 -51 t129.5 51t85 130t55 174.5t40.5 185.5q31 143 52 257.5t19 194.5t-31.5 123t-103.5 43q-72 0 -120 -43t-84 -123t-63.5 -194.5t-58.5 -257.5q-18 -90 -37.5 -185.5t-19.5 -174.5z" />
<glyph unicode="1" horiz-adv-x="909" d="M403 0l259 1214l-244 -143l39 180q18 8 54 28.5t77 46.5t80 51.5t65 43.5h162l-303 -1421h-189z" />
<glyph unicode="2" horiz-adv-x="909" d="M88 0l35 164q203 219 336 357t216 235.5t124 173.5t61 168q18 86 -13.5 137t-123.5 51q-51 0 -89 -20.5t-62.5 -52t-39 -73.5t-24.5 -85h-193q27 178 136.5 283.5t291.5 105.5q193 0 266.5 -90t32.5 -283q-25 -119 -74.5 -208t-133.5 -184t-209 -214t-301 -301h563 l-35 -164h-764z" />
<glyph unicode="3" horiz-adv-x="909" d="M111 246q2 47 11 86t13 59h189q-12 -53 -15.5 -101t9 -84t46 -57.5t97.5 -21.5q125 0 186.5 71.5t85.5 184.5q18 86 12 140.5t-35.5 85t-85 42t-137.5 11.5l35 165q125 -10 218.5 44.5t121.5 191.5q20 98 -11.5 160.5t-137.5 62.5q-57 0 -97.5 -20.5t-66 -52t-39.5 -73.5 t-25 -85h-188q29 182 140.5 285.5t310.5 103.5q182 0 264 -91t43 -278q-23 -100 -68 -161.5t-97 -96.5t-103.5 -49t-84.5 -23v-4q162 -23 207 -112.5t11 -249.5q-43 -209 -173.5 -309.5t-334.5 -100.5q-100 0 -161 25.5t-92.5 65.5t-40.5 89.5t-7 96.5z" />
<glyph unicode="4" horiz-adv-x="909" d="M125 346l35 164l596 911h250l-195 -911h168l-35 -164h-168l-74 -346h-176l74 346h-475zM324 510h311l158 739h-5z" />
<glyph unicode="5" horiz-adv-x="909" d="M154 186.5q0 63.5 14 135.5h188q-8 -41 -8 -80t14.5 -69t42 -48.5t74.5 -18.5q68 0 112 30t72.5 75t45 101.5t28.5 107.5q16 78 26.5 145.5t3.5 116.5t-38 77.5t-96 28.5q-78 0 -130 -47t-79 -118h-170l170 798h663l-34 -164h-475l-89 -413l3 -4q33 47 104.5 76.5 t142.5 29.5q154 0 201 -115.5t-6 -363.5q-16 -86 -46 -174t-83 -160t-140 -118t-221 -46q-111 0 -173 29t-89.5 77t-27.5 111.5z" />
<glyph unicode="6" horiz-adv-x="909" d="M163 197.5q-13 103.5 9.5 235.5t50.5 272q31 143 65 276t91 236.5t148 165t237 61.5q80 0 141.5 -23.5t98 -68.5t48 -109.5t-9.5 -144.5h-188q8 37 6 73.5t-16.5 67.5t-42 49.5t-68.5 18.5q-59 0 -102 -27t-77 -88.5t-63.5 -159.5t-60.5 -239h4q49 61 118 97t142 36 q68 0 125.5 -22.5t92 -77t42 -146.5t-21.5 -231q-20 -94 -59 -181.5t-98.5 -154t-140.5 -105.5t-183 -39q-145 0 -210 62.5t-78 166zM346.5 349.5q-6.5 -58.5 3.5 -107.5t43 -82t101 -33q57 0 99 28.5t71.5 78t50 114t35.5 133.5q10 49 14 99.5t-8.5 92.5t-44 68.5 t-93.5 26.5q-63 0 -106 -29.5t-72.5 -76t-47 -100.5t-27.5 -101q-12 -53 -18.5 -111.5z" />
<glyph unicode="7" horiz-adv-x="909" d="M205 0l665 1257h-540l35 164h735l-35 -164l-647 -1257h-213z" />
<glyph unicode="8" horiz-adv-x="909" d="M158 383q14 70 38.5 133.5t65.5 112.5t98.5 81.5t137.5 41.5v4v-2q-121 25 -162 119t-14 214q35 168 153.5 262.5t286.5 94.5t245.5 -94.5t43.5 -262.5q-27 -123 -107 -216t-213 -117v2v-4q76 -8 120 -41t63.5 -82t17.5 -112.5t-17 -133.5q-41 -193 -160.5 -303.5 t-305.5 -110.5t-259 110.5t-32 303.5zM336 290q0 -46 14.5 -82t46 -58.5t84.5 -22.5t94 22.5t72 58.5t50.5 82t29.5 91q8 47 14.5 98t-4 94t-42 71t-97.5 28q-68 0 -111 -28t-71.5 -71t-45 -94t-24.5 -98q-10 -45 -10 -91zM501 1010q-1 -45 10 -84t40 -64.5t82 -25.5 t92 25.5t67.5 64.5t45 84t26.5 84q8 41 5 78.5t-18 67.5t-44 48.5t-74 18.5q-47 0 -84 -18.5t-64.5 -48.5t-46 -67.5t-26.5 -78.5q-10 -39 -11 -84z" />
<glyph unicode="9" horiz-adv-x="909" d="M174 340h188q-8 -39 -8 -77t13.5 -68.5t40 -49t71.5 -18.5q70 0 116 37t81 108.5t62.5 177t56.5 242.5h-4q-49 -74 -120 -103.5t-153 -29.5q-43 0 -95 15.5t-93 63.5t-57.5 136t16.5 234q25 121 75 203.5t114.5 134t137 75t144.5 23.5q145 0 210.5 -61.5t79 -165 t-10 -236.5t-54.5 -276q-29 -139 -62.5 -271.5t-92 -236t-149.5 -166t-235 -62.5q-162 0 -236.5 100.5t-35.5 270.5zM462 906.5q-5 -52.5 6 -94.5t43 -68.5t93 -26.5t104.5 26.5t73 68.5t48 94t28.5 106q10 49 14.5 101t-7 95t-43.5 71t-91 28q-61 0 -104 -28t-73 -71 t-48.5 -95t-28.5 -101q-10 -53 -15 -105.5z" />
<glyph unicode=":" horiz-adv-x="454" d="M131 0l45 213h193l-45 -213h-193zM305 821l45 213h193l-45 -213h-193z" />
<glyph unicode=";" horiz-adv-x="454" d="M14 -260l207 473h211l-287 -473h-131zM305 821l45 213h193l-45 -213h-193z" />
<glyph unicode="&#x3c;" d="M182 453l29 131l952 471l-30 -150l-777 -387l611 -395l-33 -150z" />
<glyph unicode="=" d="M143 256l27 127h848l-27 -127h-848zM227 659l29 127h848l-29 -127h-848z" />
<glyph unicode="&#x3e;" d="M78 -27l33 150l778 395l-613 387l31 150l756 -471l-29 -131z" />
<glyph unicode="?" horiz-adv-x="909" d="M346 1087q16 94 49 172t87.5 133.5t131 86t179.5 30.5q158 0 225 -93t35 -249q-27 -127 -88.5 -215t-127 -154.5t-118.5 -119.5t-66 -113l-41 -190h-168l50 233q14 68 65 126.5t111.5 123t115 139t76.5 174.5q6 35 5 70t-13 64.5t-37.5 48t-66.5 18.5q-55 0 -92 -29.5 t-61 -72.5t-37 -92.5t-21 -90.5h-193zM352 0l45 213h193l-45 -213h-193z" />
<glyph unicode="@" horiz-adv-x="1613" d="M202.5 439.5q-30.5 140.5 4.5 301.5q35 160 125 300.5t217 244t280.5 163.5t313.5 60q172 0 286.5 -41t183 -103t100.5 -139t42 -146.5t6 -124t-10 -74.5q-37 -174 -116 -289t-170 -184.5t-180 -98t-146 -28.5q-53 0 -100.5 25.5t-55.5 82.5q-57 -49 -129 -76.5 t-137 -27.5q-68 0 -115 24.5t-75.5 66.5t-37 98t6.5 120q20 104 81.5 215t147.5 202t193.5 150.5t222.5 59.5q72 0 129 -35t73 -103l50 97h141l-342 -625q-12 -23 -28.5 -53.5t-20.5 -52.5q-6 -27 8 -40.5t41 -13.5q47 0 112.5 31t131 91.5t121 151.5t79.5 212q8 31 11.5 81 t-7 107t-40 114.5t-90 104.5t-155.5 77t-237 30q-137 0 -268 -51.5t-238.5 -140.5t-184.5 -209t-105 -255q-29 -137 -3.5 -255.5t96 -208t179 -140.5t246.5 -51q186 0 352 68.5t287 203.5h123q-68 -90 -157 -161.5t-190.5 -121.5t-213 -77t-226.5 -27q-160 0 -288 60.5 t-211 165t-113.5 245zM650 532.5q3 -34.5 17.5 -62.5t40 -45t64.5 -17q61 0 116.5 33.5t104.5 87t90 117t73 123.5t50.5 108.5t22.5 70.5q14 59 -16.5 104.5t-96.5 45.5q-82 0 -158.5 -50.5t-139 -126t-105.5 -160.5t-58 -157q-8 -37 -5 -71.5z" />
<glyph unicode="A" horiz-adv-x="1251" d="M31 0l782 1479h240l168 -1479h-211l-31 352h-571l-187 -352h-190zM489 516h474l-72 789h-4z" />
<glyph unicode="B" horiz-adv-x="1251" d="M184 0l314 1479h481q78 0 129 -12.5t84 -33t52.5 -48t33.5 -58.5q24 -56 24 -110v-7q-2 -58 -8 -80q-29 -139 -102.5 -228t-224.5 -122l-2 -10q156 -18 208 -110q32 -56 32 -134q0 -50 -13 -110q-31 -141 -94.5 -224t-139 -126t-155.5 -54.5t-144 -11.5h-475zM408 164 h266q76 0 133 24.5t97 61.5t63.5 81t31.5 85q10 50 10 88q0 30 -6 54q-14 54 -53 84t-98 40t-131 10h-201zM555 856h274q111 2 178.5 64.5t90.5 171.5q7 30 7 57q0 57 -28 101q-41 66 -159 65h-267z" />
<glyph unicode="C" horiz-adv-x="1138" d="M244 221q-7 39 -8 87q0 101 32 247l88 418q33 158 88.5 261t130 164.5t168 86t203.5 24.5q220 -1 286 -111q34 -58 35 -145q0 -79 -28 -182h-195q14 63 20 121q1 12 1 23q0 43 -18 71q-10 18 -30 29.5t-42.5 19.5t-44 11.5t-35.5 3.5q-57 0 -102 -15.5t-76 -35t-48.5 -38 t-21.5 -26.5l-13 -19.5t-23.5 -45t-33 -89t-38.5 -153.5l-84 -396q-25 -119 -26 -195q0 -11 1 -21q4 -80 30.5 -122t73 -54.5t99.5 -12.5q23 0 62.5 8t84.5 39t87 92.5t65 169.5h194q-33 -174 -104.5 -269t-151 -139t-152.5 -51.5t-108 -7.5q-70 0 -148.5 11.5t-137 66.5 t-80.5 174z" />
<glyph unicode="D" horiz-adv-x="1251" d="M170 0l313 1479h455q143 0 231 -53.5t119 -172.5q10 -40 11 -99q0 -10 -1 -20q-2 -72 -10 -143t-19.5 -128.5t-13.5 -76.5q-51 -238 -103 -380t-114 -216q-82 -96 -207.5 -143t-320.5 -47h-340zM393 164h178q98 0 171 20.5t126.5 71.5t91 136t64.5 214l63 299 q23 108 23 185q0 84 -27 132q-51 92 -198 93h-248z" />
<glyph unicode="E" d="M166 0l313 1479h762l-35 -164h-573l-101 -475h533l-35 -164h-532l-109 -512h586l-35 -164h-774z" />
<glyph unicode="F" horiz-adv-x="909" d="M152 0l313 1479h733l-35 -164h-545l-100 -475h516l-35 -164h-516l-143 -676h-188z" />
<glyph unicode="G" horiz-adv-x="1251" d="M262 541l103 485q47 221 190 352t379 131q240 0 333 -97q57 -59 57 -168q0 -70 -24 -161h-196q11 51 11 93q0 65 -27 107q-46 69 -189 69q-23 0 -69 -6.5t-98 -37t-100 -95t-73 -181.5l-106 -500q-25 -121 -25 -199.5t25.5 -124.5t72.5 -63.5t113 -17.5q102 0 173 21.5 t106 44.5l94 442h-273l35 164h461l-154 -719q-100 -49 -215.5 -80t-259.5 -31q-236 0 -322 132q-50 75 -50 208q0 100 28 232z" />
<glyph unicode="H" horiz-adv-x="1251" d="M178 0l314 1479h188l-135 -639h518l135 639h188l-313 -1479h-188l143 676h-518l-143 -676h-189z" />
<glyph unicode="I" horiz-adv-x="569" d="M190 0l314 1479h188l-313 -1479h-189z" />
<glyph unicode="J" d="M128 279q11 90 32 180h196q-10 -49 -21 -107q-8 -41 -8 -77q0 -16 2 -32q5 -50 34.5 -83t101.5 -33q76 0 125 29.5t80.5 79t50 113t33.5 130.5l211 1000h188l-235 -1112q-6 -31 -27 -96.5t-74 -132t-146 -118t-245 -51.5q-31 0 -72 6.5t-82 22.5t-75.5 45t-51.5 72 q-21 53 -21 114q0 24 4 50z" />
<glyph unicode="K" horiz-adv-x="1138" d="M166 0l313 1479h189l-138 -650h7l653 650h213l-678 -668l395 -811h-241l-355 772h-6l-164 -772h-188z" />
<glyph unicode="L" horiz-adv-x="909" d="M166 0l313 1479h189l-279 -1315h543l-35 -164h-731z" />
<glyph unicode="M" horiz-adv-x="1705" d="M168 0l313 1479h305l111 -1241h4l639 1241h311l-313 -1479h-188l278 1315h-4l-692 -1315h-178l-127 1315h-4l-279 -1315h-176z" />
<glyph unicode="N" horiz-adv-x="1366" d="M176 0l313 1479h267l307 -1266h4l268 1266h168l-313 -1479h-258l-311 1282h-5l-272 -1282h-168z" />
<glyph unicode="O" horiz-adv-x="1251" d="M274 541l103 485q47 221 190.5 352t378.5 131q232 0 320 -131q57 -85 58 -209q0 -66 -17 -143l-103 -485q-66 -307 -208 -439.5t-378 -132.5t-322 132q-49 75 -50 208q0 100 28 232zM440 332.5q0 -78.5 26 -124.5t72.5 -63.5t112.5 -17.5q68 0 122 17.5t98 63.5t79 125 t60 199l106 500q14 64 14 113q0 41 -10 69q-20 64 -59 94.5t-83 37t-67 6.5t-68.5 -6.5t-98 -37t-100.5 -95t-73 -181.5l-106 -500q-25 -121 -25 -199.5z" />
<glyph unicode="P" horiz-adv-x="1138" d="M190 0l314 1479h438q76 0 145.5 -17.5t118.5 -63.5q50 -46 68 -128q8 -34 7 -77q0 -60 -15 -136q-27 -125 -87.5 -205t-133 -124t-148.5 -60.5t-131 -16.5h-248l-139 -651h-189zM553 815h207q29 0 75 7t93 33t88 76t59 136q9 43 9 77q0 32 -8 56q-17 49 -47 74.5 t-62.5 33t-48.5 7.5h-261z" />
<glyph unicode="Q" horiz-adv-x="1251" d="M242 234q-7 37 -7 85q0 91 27 222l103 485q47 221 190 352t379 131q233 0 320 -131q56 -85 56 -208q0 -66 -16 -144l-102 -485q-8 -39 -29.5 -102.5t-51.5 -126t-64.5 -112.5t-69.5 -65l4 -4q10 4 28.5 9t38 10.5t38 9.5t30.5 4h148l-35 -164h-615q-76 0 -155.5 10 t-137 62.5t-79.5 161.5zM430 370v-25q0 -55 16 -95q21 -49 69 -73.5t132 -24.5q82 0 140.5 24.5t98.5 73.5t66.5 119.5t44.5 162.5l107 500q14 64 14 112q0 40 -10 70q-21 64 -59.5 94.5t-82.5 37t-67 6.5t-69 -6.5t-98 -37t-100 -95t-73 -181.5l-106 -500q-18 -92 -23 -162 z" />
<glyph unicode="R" horiz-adv-x="1138" d="M162 0l313 1479h510q98 0 159.5 -32t92.5 -84q31 -51 35 -117q1 -15 0 -30q0 -52 -10 -106q-27 -131 -116 -223t-226 -115v-4q61 -10 101 -28.5t59.5 -60.5t19.5 -111.5t-21 -180.5q-4 -25 -10 -75t-12 -108q-5 -59 -9 -114q-1 -23 -2 -42q0 -28 3 -48h-197 q-10 33 -10 77v15q2 53 12 117.5t22.5 136.5t22.5 146q2 21 2 38q-1 42 -13 68q-18 38 -48.5 56t-65.5 22t-57 4h-221l-146 -680h-188zM530 844h283q49 0 91 20.5t75 54t54.5 77.5t31.5 94q6 33 6 65v15q-2 40 -18.5 72t-50 52.5t-89.5 20.5h-284z" />
<glyph unicode="S" horiz-adv-x="1138" d="M193 255q0 52 9 101.5t17 83.5h187l-11 -43q-9 -45 -9 -81q0 -25 4 -45q11 -50 40 -80.5t71 -44t87 -13.5q113 0 199.5 54.5t115.5 185.5q5 25 5 47q0 51 -26 90q-36 55 -100.5 100t-141.5 86t-139.5 96.5t-96.5 129.5q-20 43 -19 100q0 40 10 86q20 98 69.5 173t118 126 t153.5 76.5t179 25.5q203 0 289 -103q52 -62 52 -168q0 -71 -23 -161h-197q12 61 14 111v6q0 45 -18 78q-20 35 -60 54.5t-106 19.5q-43 0 -86 -11.5t-80.5 -37t-66.5 -67.5t-41 -102q-5 -25 -5 -47q-1 -51 25 -89q36 -54 101 -98t143 -86t140 -98t94 -134q19 -45 18 -103 q0 -43 -10 -92q-27 -117 -80 -196t-127 -127t-162 -68.5t-178 -20.5h-16q-99 -1 -163 23q-68 26 -108.5 66t-55.5 92.5t-15 104.5z" />
<glyph unicode="T" d="M307 1315l35 164h967l-35 -164h-389l-279 -1315h-188l278 1315h-389z" />
<glyph unicode="U" horiz-adv-x="1251" d="M274 541l199 938h189l-201 -947q-24 -116 -24 -193v-7q1 -78 26.5 -124t74 -63.5t113.5 -17.5q68 0 123 17.5t100.5 63.5t80 125t59.5 199l200 947h189l-199 -938q-66 -307 -208 -439.5t-378 -132.5t-322 132q-49 75 -50 208q0 100 28 232z" />
<glyph unicode="V" horiz-adv-x="1138" d="M340 1479h205l61 -1301h4l623 1301h192l-745 -1479h-225z" />
<glyph unicode="W" horiz-adv-x="1820" d="M326 1479h200l6 -1282h5l569 1282h244l-4 -1282h4l573 1282h197l-705 -1479h-229l-8 1282h-4l-572 -1282h-229z" />
<glyph unicode="X" horiz-adv-x="1138" d="M12 0l588 766l-252 713h217l183 -574l428 574h206l-548 -713l280 -766h-227l-209 633l-461 -633h-205z" />
<glyph unicode="Y" d="M330 1479h211l137 -715l450 715h191l-598 -916l-119 -563h-188l118 563z" />
<glyph unicode="Z" d="M49 0l45 213l950 1098v4h-692l35 164h883l-39 -189l-973 -1126h750l-35 -164h-924z" />
<glyph unicode="[" horiz-adv-x="569" d="M92 -242l381 1790h340l-25 -114h-172l-331 -1561h178l-25 -115h-346z" />
<glyph unicode="\" horiz-adv-x="569" d="M311 1479h138l114 -1510h-137z" />
<glyph unicode="]" horiz-adv-x="569" d="M29 -242l24 115h178l332 1561h-172l25 114h340l-381 -1790h-346z" />
<glyph unicode="^" d="M256 567l492 854h122l138 -854h-154l-92 652h-4l-363 -652h-139z" />
<glyph unicode="_" d="M-55 -256l22 102h1024l-22 -102h-1024z" />
<glyph unicode="`" horiz-adv-x="569" d="M354 1479h224l120 -289h-137z" />
<glyph unicode="a" d="M184 183.5q0 62.5 17 135.5q25 117 90 183.5t152 97.5t185 37q73 4 140 5q23 0 45 -1q11 51 21 103q5 27 6 51q0 22 -4 41q-8 41 -39 66.5t-99 25.5q-84 0 -137 -51.5t-63 -133.5h-183q43 174 147.5 243t268.5 69q100 0 160.5 -24.5t89.5 -66.5t32 -98q0 -9 1 -20 q0 -48 -13 -103l-104 -497q-14 -61 -21.5 -124t-11.5 -122h-184l33 150h-4q-59 -90 -130 -130t-167 -40q-82 0 -131.5 25.5t-73 70.5t-23.5 107.5zM367 307q-6 -29 -6 -55q0 -43 16 -78q26 -57 110 -57q39 0 82 15t85 58t76 121t54 203q-59 0 -125.5 -2t-126 -20.5 t-104.5 -60.5t-61 -124z" />
<glyph unicode="b" d="M162 0l313 1479h168l-115 -549h7q55 61 116.5 93t134.5 32q127 0 185.5 -50.5t74.5 -130.5q8 -41 8 -87q0 -43 -8 -91q-14 -100 -34 -196q-37 -170 -87.5 -272.5t-109.5 -158t-122.5 -72.5t-125.5 -17q-82 0 -131 35.5t-76 107.5h-4l-26 -123h-168zM406 278 q2 -68 30.5 -114.5t106.5 -46.5q80 0 130 38t82.5 94t50 123.5t30.5 125.5q20 104 30 182q5 39 5.5 71.5t-5.5 59.5q-10 53 -45 80t-102 27q-70 0 -117 -37t-77.5 -91.5t-48 -117t-27.5 -113.5q-12 -59 -29 -136q-15 -67 -15 -127q1 -9 1 -18z" />
<glyph unicode="c" d="M230 228q-2 21 -1 44q0 93 29 230q25 115 57.5 215t88 175t143.5 119t221 44q158 0 224 -89q39 -53 38 -136q0 -57 -18 -128h-174q11 49 11 86q0 10 -1 20q-4 42 -20.5 66.5t-40 34t-48.5 9.5q-47 0 -90 -14.5t-80 -52.5t-66.5 -104.5t-51.5 -173.5q-29 -125 -37 -213 q-3 -35 -3 -65q0 -44 7 -76q12 -53 49 -77.5t102 -24.5q14 0 43 9t58.5 34.5t57.5 69.5t40 114h176q-20 -109 -70.5 -179.5t-109.5 -111.5t-119.5 -57t-103.5 -16q-82 0 -150.5 17t-109.5 73t-51 158z" />
<glyph unicode="d" d="M196 228q-1 17 -2 36q0 95 31 236q20 96 48 195.5t77 179t129 130t205 50.5q76 0 124 -32t79 -93h6l115 549h168l-314 -1479h-168l27 123h-4q-59 -72 -123 -107.5t-145 -35.5q-63 0 -119 17t-91 73t-43 158zM374 249q7 -56 42 -94t114 -38q72 0 118 40t78 103.5t51.5 142 t35.5 156.5q9 51 19 113q5 35 6 68q0 26 -4 50q-8 54 -39 91t-101 37q-68 0 -113.5 -27t-78.5 -80t-56.5 -131t-44.5 -182q-12 -57 -23 -125q-7 -42 -7 -79q0 -23 3 -45z" />
<glyph unicode="e" d="M210 228q-2 20 -2 42q0 93 30 232q25 115 57.5 215t87.5 175t143 119t222 44q111 0 176 -31q64 -32 92 -94q24 -55 25 -133q0 -11 -1 -23q-4 -94 -30 -223l-19 -88h-581q-23 -109 -23 -176.5t18.5 -105.5t54.5 -51t85 -13q86 0 143 59.5t80 136.5h184 q-39 -174 -153.5 -253.5t-278.5 -79.5q-82 0 -150.5 17t-109.5 73t-50 158zM436 590h404q24 107 24 172v8q-2 66 -21.5 101.5t-55 46t-82.5 10.5q-39 0 -77 -12.5t-73 -49.5t-64.5 -102.5t-54.5 -173.5z" />
<glyph unicode="f" horiz-adv-x="569" d="M178 0l193 907h-160l27 127h159l43 201q16 78 52 127t84.5 76.5t103.5 37t111 9.5q27 0 44 -1t33 -5l-24 -121q-18 1 -35 1q-43 0 -74 -7q-43 -11 -70.5 -32.5t-41 -50t-19.5 -59.5l-39 -176h209l-26 -127h-209l-193 -907h-168z" />
<glyph unicode="g" d="M136 -238q-5 21 -5 45q0 36 12 78h189q-4 -20 -4 -38q0 -45 26 -73q35 -38 105 -38q88 0 144 49t73 129l45 215h-6q-45 -61 -116 -95t-138 -34q-104 0 -161.5 43t-77.5 117q-15 52 -15 119q0 26 2 55q8 100 33 215q37 178 97 279.5t123.5 151.5t121 62.5t88.5 12.5 q82 0 137 -36t74 -112h4l26 127h168l-241 -1138q-18 -86 -57.5 -142.5t-96.5 -88.5t-130 -44t-159 -12q-63 0 -118.5 16.5t-92 50t-50.5 86.5zM388 345v-24q0 -62 14 -101q16 -46 49.5 -63.5t78.5 -17.5q78 0 126.5 40t79 98.5t47 125t26.5 119.5q12 57 25 126q10 50 10 96 q0 16 -1 32q-5 60 -38 99.5t-113 39.5q-72 0 -119 -37.5t-78.5 -94t-49 -120t-27.5 -114.5q-27 -125 -30 -204z" />
<glyph unicode="h" d="M145 0l314 1479h168l-121 -578h8q70 90 140.5 122t170.5 32q133 0 189 -73q33 -44 33 -125q0 -54 -15 -124l-155 -733h-168l149 700q9 42 9 78q-1 45 -15 79q-26 61 -133 61q-63 0 -108.5 -24t-78 -66t-54 -98t-36.5 -122l-129 -608h-168z" />
<glyph unicode="i" horiz-adv-x="454" d="M143 0l219 1034h168l-219 -1034h-168zM410 1298l36 181h189l-37 -181h-188z" />
<glyph unicode="j" horiz-adv-x="454" d="M-66 -391l31 143q55 0 94 15.5t52 80.5l251 1186h168l-249 -1177q-12 -61 -34 -107.5t-59.5 -78t-99 -47t-154.5 -15.5zM410 1298l36 181h189l-37 -181h-188z" />
<glyph unicode="k" horiz-adv-x="909" d="M147 0l314 1479h168l-189 -891h4l410 446h205l-438 -444l280 -590h-213l-246 580h-4l-123 -580h-168z" />
<glyph unicode="l" horiz-adv-x="454" d="M143 0l314 1479h168l-314 -1479h-168z" />
<glyph unicode="m" horiz-adv-x="1478" d="M139 0l174 819q12 53 20.5 107.5t14.5 107.5h178l-26 -129h4q55 84 126.5 117t162.5 33q72 0 136 -31t79 -102q59 84 130.5 108.5t141.5 24.5q41 0 89 -7.5t85 -35.5q36 -27 54 -80q8 -25 9 -60q0 -38 -10 -86l-168 -786h-168l152 717q8 39 10 75v11q0 30 -10 54 q-12 28 -41 44.5t-80 16.5q-47 0 -70.5 -5.5t-64.5 -33.5q-20 -14 -37.5 -40t-29 -52.5t-18.5 -51t-11 -39.5l-148 -696h-168l152 717q8 39 10 75v11q0 30 -10 54q-12 28 -41 44.5t-80 16.5q-39 0 -87 -20.5t-73 -49.5q-31 -39 -48 -81t-23 -71l-148 -696h-168z" />
<glyph unicode="n" d="M147 0l175 819q12 53 20 107.5t14 107.5h179l-27 -133h8q68 88 137.5 121t169.5 33q84 0 132.5 -23.5t70.5 -68.5q20 -40 21 -94q0 -7 -1 -13q-2 -62 -18 -139l-151 -717h-168l151 717q9 37 9 71v6q-1 36 -15 64.5t-47 44t-86 15.5q-70 0 -117 -28t-78.5 -72t-50 -98 t-29.5 -108l-131 -612h-168z" />
<glyph unicode="o" d="M198 228q-2 21 -2 44q0 93 29 230q25 115 57.5 215t88 175t143.5 119t221 44q135 0 204 -44t93 -119q17 -52 18 -117q0 -29 -4 -59q-10 -100 -34 -214q-37 -172 -89.5 -274.5t-117 -158t-140 -72.5t-157.5 -17t-150.5 17t-109 73t-50.5 158zM381 360q-3 -35 -3 -65 q0 -44 7 -76q12 -53 49 -77.5t103 -24.5t112.5 24.5t82.5 77.5t63.5 141.5t56.5 212.5q21 96 21 159q-1 7 -1 14q-2 67 -22.5 105t-57 52.5t-85.5 14.5q-47 0 -90.5 -14.5t-80 -52.5t-66.5 -104.5t-52 -173.5q-29 -125 -37 -213z" />
<glyph unicode="p" d="M78 -391l303 1425h168l-25 -123h4q57 72 121 108t146 36q63 0 119.5 -17.5t91 -73t42.5 -157.5q1 -17 1 -36q0 -95 -31 -236q-20 -96 -47 -195.5t-77 -179.5t-130 -130t-205 -50q-74 0 -122 31.5t-79 92.5h-6l-106 -495h-168zM408 244q8 -54 39.5 -90.5t101.5 -36.5 q68 0 114 26.5t78.5 78.5t56 130t44.5 183q14 59 24 125q7 39 7 75q0 26 -3 49q-8 58 -42.5 96t-114.5 38q-78 0 -127 -47.5t-79 -116t-47.5 -145.5t-29.5 -136q-10 -51 -20 -113q-5 -35 -5 -68q0 -25 3 -48z" />
<glyph unicode="q" d="M196 339q15 99 35 196q37 170 88.5 272t109.5 157.5t121.5 73t125.5 17.5q82 0 131 -36t78 -108h4l24 123h168l-303 -1425h-168l107 495h-6q-57 -61 -119 -92.5t-135 -31.5q-125 0 -183.5 50t-75.5 130q-8 43 -8 91q0 42 6 88zM377 222q10 -52 44.5 -78.5t102.5 -26.5 q70 0 117 36.5t78 90t48 116t28 113.5q12 59 29 135q14 68 14 129v15q-2 67 -31 114t-107 47q-80 0 -130 -36.5t-81.5 -94t-49 -123t-31.5 -124.5q-20 -104 -30 -183q-6 -40 -6 -73q0 -32 5 -57z" />
<glyph unicode="r" horiz-adv-x="681" d="M154 0l219 1034h168l-33 -155h4q39 59 77 94t80 53t90 23.5t109 5.5l-37 -174q-10 2 -21 3t-22 3q-10 2 -21 3t-24 1q-70 0 -120 -24.5t-84.5 -63.5t-55 -89t-32.5 -104l-129 -610h-168z" />
<glyph unicode="s" horiz-adv-x="909" d="M164 315h190q-6 -23 -10 -57q-1 -10 -1 -18q0 -24 7 -46q10 -32 40 -54.5t93 -22.5q76 0 135.5 39t75.5 118q2 12 2 22q0 33 -22 58q-30 33 -81.5 62.5t-112 59.5t-109.5 70t-76 94q-17 33 -17 75q0 27 7 57q8 41 33.5 90t74.5 92t124 72t183 29q70 0 128.5 -17.5 t96.5 -52.5t51 -90q5 -20 4 -44q0 -40 -13 -89h-187q7 32 7 57q0 109 -134 109q-68 0 -121 -36t-67 -104q-2 -11 -3 -21q0 -33 24 -57q32 -32 83.5 -60.5t111.5 -57.5t109.5 -69t75.5 -94q17 -34 17 -77q0 -26 -6 -57q-18 -86 -59.5 -145.5t-97.5 -97.5t-126 -55t-145 -17 q-168 0 -248 78q-52 51 -52 145q0 50 15 112z" />
<glyph unicode="t" horiz-adv-x="569" d="M188 907l27 127h170l43 199l184 76l-59 -275h225l-26 -127h-226l-135 -633q-4 -25 -7 -51t6 -47.5t38 -36t86 -14.5q8 0 28.5 2t49.5 6l-29 -129q-41 -4 -84 -10t-84 -6q-121 0 -166 47q-32 33 -32 87q0 23 6 50l155 735h-170z" />
<glyph unicode="u" d="M207 246l166 788h168l-152 -717q-8 -37 -8 -69q1 -48 19 -82q30 -57 120 -57q35 0 74 13t73.5 42t63.5 75t43 109l146 686h167l-174 -819q-10 -53 -19 -107.5t-15 -107.5h-179l27 125h-6q-57 -72 -134 -108.5t-159 -36.5q-138 0 -194 66q-37 44 -37 117q0 38 10 83z" />
<glyph unicode="v" horiz-adv-x="909" d="M248 1034h188l45 -876h4l437 876h176l-543 -1034h-219z" />
<glyph unicode="w" horiz-adv-x="1478" d="M238 1034h186l-2 -891h4l418 891h237l23 -891h4l393 891h178l-495 -1034h-226l-34 881h-4l-418 -881h-226z" />
<glyph unicode="x" horiz-adv-x="909" d="M12 0l437 541l-191 493h215l119 -370l287 370h202l-413 -493l227 -541h-221l-150 424l-313 -424h-199z" />
<glyph unicode="y" horiz-adv-x="909" d="M166 -391l201 391l-131 1034h194l70 -841h4l426 841h182l-772 -1425h-174z" />
<glyph unicode="z" horiz-adv-x="796" d="M72 0l32 158l609 735v4h-428l28 137h617l-33 -153l-614 -744h471l-29 -137h-653z" />
<glyph unicode="{" horiz-adv-x="561" d="M147 629l25 114q90 18 145.5 49t73.5 109l80 381q23 109 75 164t112.5 77.5t119 23.5t96.5 1l-24 -114q-111 0 -155 -48.5t-62 -136.5l-68 -313q-10 -49 -27.5 -89t-47 -72t-74.5 -53.5t-113 -33.5v-4q63 -14 99 -40t50.5 -61.5t12.5 -80.5t-12 -101l-76 -352 q-18 -84 7.5 -133t131.5 -49l-24 -115q-102 -4 -166 11.5t-95.5 52.5t-34.5 95t15 142l84 404q12 51 4 78.5t-28.5 43t-52.5 25.5t-71 25z" />
<glyph unicode="|" horiz-adv-x="512" d="M84 -512l434 2048h127l-434 -2048h-127z" />
<glyph unicode="}" horiz-adv-x="561" d="M-39 -248l25 115q109 0 153.5 48t63.5 134l76 352q10 55 27.5 100.5t48 81t76.5 61.5t116 40v4q-61 12 -97 33.5t-52.5 53.5t-16.5 72t10 89l68 313q18 88 -5.5 136.5t-134.5 48.5l25 114q37 0 95.5 -1t109.5 -23.5t78.5 -77.5t5.5 -164l-80 -381q-18 -78 26 -108.5 t123 -49.5l-24 -114q-43 -14 -79 -24.5t-63.5 -26t-47 -43t-31.5 -78.5l-84 -404q-18 -84 -46 -142t-75 -95t-118 -52.5t-173 -11.5z" />
<glyph unicode="~" d="M182 438q29 43 61.5 86t68.5 78t77 56.5t86 21.5q43 0 90 -21.5t90 -50.5q45 -27 86 -49t74 -22q29 0 56.5 16t54 40.5t49 55.5t41.5 58l49 -97q-27 -41 -58.5 -82t-68.5 -72.5t-77 -52t-81 -20.5q-25 0 -52.5 10t-56 24.5t-55 30t-45.5 25.5q-29 16 -60.5 33.5 t-70.5 17.5q-33 0 -61.5 -17.5t-54 -44t-49 -59t-44.5 -63.5z" />
<glyph unicode="&#xa1;" horiz-adv-x="681" d="M145 -391l283 1136h145l-204 -1136h-224zM432 874l45 213h193l-45 -213h-193z" />
<glyph unicode="&#xa2;" horiz-adv-x="909" d="M127 -86l96 154q-41 57 -50 159.5t28 274.5q25 115 57.5 215t87.5 175t143.5 119t221.5 44q70 0 123 -19l79 129l66 -30l-82 -131q113 -84 57 -302h-174q8 37 11.5 70t-0.5 59l-412 -657q35 -59 133 -59q39 0 71.5 19.5t57.5 52t42 73.5t28 84h176q-18 -86 -61.5 -154.5 t-99.5 -115.5t-119.5 -72t-123.5 -25q-57 0 -108 8.5t-92 32.5l-86 -137zM350 274h4l391 625q-20 18 -63 19q-47 0 -90 -14.5t-80 -52.5t-66.5 -104.5t-52.5 -173.5q-23 -98 -33 -171.5t-10 -127.5z" />
<glyph unicode="&#xa3;" horiz-adv-x="909" d="M4 0l35 164h151l113 528h-164l35 164h164l35 166q4 14 10 51t21.5 84t45 97.5t80 92.5t125 69.5t179.5 27.5q176 0 251.5 -94.5t28.5 -274.5h-196q10 43 12 81t-11.5 67.5t-42 46t-79.5 16.5q-70 0 -112 -23.5t-65.5 -60.5t-35 -82t-21.5 -90l-37 -174h283l-35 -164h-282 l-113 -528h532l-34 -164h-873z" />
<glyph unicode="&#xa4;" horiz-adv-x="909" d="M49 225l98 86q-29 72 -35 143.5t13 159.5q18 92 54 164t100 146l-62 88l119 108l61 -88q76 53 152 77t156 24q76 0 135 -27t110 -74l101 88l73 -108l-96 -88q29 -76 33 -151t-14 -169q-18 -86 -55.5 -153.5t-94.5 -139.5l59 -86l-118 -108l-64 88q-145 -102 -305 -103 q-78 0 -137.5 28t-110.5 75l-98 -88zM283 471.5q6 -68.5 32.5 -119.5t73.5 -81.5t113 -30.5q70 0 131 29.5t111.5 81.5t85 122t51.5 148q16 74 11 141t-31.5 119.5t-72.5 83t-114 30.5q-72 0 -134.5 -29.5t-111.5 -80.5t-84 -121t-51 -150q-16 -74 -10 -142.5z" />
<glyph unicode="&#xa5;" horiz-adv-x="909" d="M193 270l28 138h234l28 135h-233l31 137h182l-164 741h199l125 -657l415 657h181l-486 -741h187l-31 -137h-238l-28 -135h237l-29 -138h-237l-57 -270h-168l57 270h-233z" />
<glyph unicode="&#xa6;" horiz-adv-x="512" d="M117 -358l151 716h127l-151 -716h-127zM334 666l151 716h127l-151 -716h-127z" />
<glyph unicode="&#xa7;" horiz-adv-x="909" d="M143 10l37 176q29 -8 89.5 -33.5t162.5 -25.5q35 0 72 7t68.5 24.5t55 43t29.5 62.5q12 57 -16.5 89t-78.5 54.5t-109.5 42t-107.5 50t-73.5 78t-9.5 124.5q23 102 98.5 164t167.5 101q-72 39 -112.5 92t-20.5 149q18 80 61.5 137.5t101.5 93.5t126 53t131 17 q123 0 225 -39l-36 -172q-51 18 -103.5 36t-109.5 18q-29 0 -61 -8.5t-60.5 -23.5t-50 -40t-27.5 -57q-12 -53 15.5 -84t72.5 -53.5t99.5 -42t98.5 -48t67.5 -75t6.5 -119.5q-20 -98 -97 -169t-171 -100v-4q86 -20 139.5 -83.5t30.5 -161.5q-16 -84 -61 -143.5t-105.5 -97.5 t-133.5 -55.5t-148 -17.5q-68 0 -133.5 11.5t-129.5 29.5zM437 676.5q7 -25.5 26.5 -42t47 -26.5t56.5 -26q18 4 50 18t65 36.5t59.5 55.5t34.5 72q10 43 -4 70.5t-39.5 44t-53.5 25.5t-44 18q-12 -4 -41 -16.5t-60.5 -34t-58 -52.5t-37.5 -74q-8 -43 -1 -68.5z" />
<glyph unicode="&#xa8;" horiz-adv-x="569" d="M264 1208l47 213h193l-47 -213h-193zM625 1208l47 213h192l-47 -213h-192z" />
<glyph unicode="&#xa9;" horiz-adv-x="1638" d="M202.5 439.5q-30.5 140.5 4.5 301.5q35 160 125 300.5t217 244t280.5 163.5t313.5 60q158 0 284.5 -60t209.5 -163.5t114 -244t-4 -300.5q-35 -162 -125 -302t-216 -244.5t-279.5 -165t-311.5 -60.5q-160 0 -288 60.5t-211 165t-113.5 245zM318.5 483.5 q25.5 -118.5 96 -208t179 -140.5t246.5 -51q135 0 265 51t237.5 140.5t184.5 208t105 255.5q29 135 3.5 255t-95.5 209t-177.5 140.5t-244.5 51.5t-268 -51.5t-238.5 -140.5t-184.5 -209t-105 -255q-29 -137 -3.5 -255.5zM639 451.5q-23 72.5 8 210.5l43 206q16 76 45 140.5 t75 110.5t112.5 73t160.5 27q152 0 203 -64.5t19 -198.5h-144q12 59 4 89t-26.5 43.5t-43 14.5t-42.5 1q-80 0 -132.5 -37t-74.5 -141l-62 -291q-14 -63 -11 -105.5t20.5 -65t46 -31.5t65.5 -9q90 0 133 47t60 119h143q-23 -123 -110 -202t-232 -79q-37 0 -92 3t-100 35 t-68 104.5z" />
<glyph unicode="&#xaa;" horiz-adv-x="614" d="M264 1069q14 70 60.5 111t107 61.5t129 25.5t129.5 3q6 29 9 56.5t-4 49t-29.5 35.5t-65.5 14q-55 0 -94 -26.5t-45 -75.5h-129q27 104 104.5 145t186.5 41q72 0 116.5 -14t69.5 -39.5t30 -59.5t-3 -73l-64 -299q-8 -37 -11 -75t-5 -72h-148l19 90h-4q-35 -53 -85.5 -78 t-113.5 -25q-106 0 -143 56.5t-17 148.5zM397 1061q-10 -45 5.5 -79t68.5 -34q27 0 56.5 9.5t57 35t51.5 71.5t36 122q-43 0 -87 -2t-82 -12.5t-66.5 -36t-39.5 -74.5z" />
<glyph unicode="&#xab;" horiz-adv-x="909" d="M180 553l277 401h155l-247 -401l75 -395h-159zM532 553l277 401h156l-248 -401l76 -395h-160z" />
<glyph unicode="&#xac;" d="M227 659l29 127h848l-117 -546h-127l88 419h-721z" />
<glyph unicode="&#xad;" horiz-adv-x="681" d="M217 479l33 158h450l-32 -158h-451z" />
<glyph unicode="&#xae;" horiz-adv-x="1638" d="M202.5 439.5q-30.5 140.5 4.5 301.5q35 160 125 300.5t217 244t280.5 163.5t313.5 60q158 0 284.5 -60t209.5 -163.5t114 -244t-4 -300.5q-35 -162 -125 -302t-216 -244.5t-279.5 -165t-311.5 -60.5q-160 0 -288 60.5t-211 165t-113.5 245zM318.5 483.5 q25.5 -118.5 96 -208t179 -140.5t246.5 -51q135 0 265 51t237.5 140.5t184.5 208t105 255.5q29 135 3.5 255t-95.5 209t-177.5 140.5t-244.5 51.5t-268 -51.5t-238.5 -140.5t-184.5 -209t-105 -255q-29 -137 -3.5 -255.5zM596 295l188 887h353q63 0 105 -19.5t66.5 -50.5 t31 -71t-2.5 -80q-16 -78 -81.5 -133.5t-155.5 -71.5v-4q41 -4 67.5 -15.5t39 -36t12.5 -65.5t-11 -109q-4 -14 -7 -44.5t-6 -64.5t-4 -68t3 -54h-141q-16 47 -1 126t25 169q4 35 -7 55.5t-29.5 30.5t-39 12t-34.5 2h-144l-84 -395h-143zM848 805h184q66 0 106 42t52 101 q6 25 4 48.5t-12.5 43t-33 31.5t-58.5 12h-185z" />
<glyph unicode="&#xaf;" horiz-adv-x="569" d="M266 1245l25 115h565l-25 -115h-565z" />
<glyph unicode="&#xb0;" horiz-adv-x="819" d="M342 1017q-12 56 2 120q12 63 48 118.5t87 97.5t112.5 66.5t125.5 24.5q63 0 113.5 -24.5t83 -66.5t45.5 -97.5t-1 -118.5t-50 -119.5t-87 -97.5t-111.5 -66t-123.5 -25t-114.5 25t-84.5 66t-45 97zM471 1137q-16 -76 25 -128.5t116 -52.5q37 0 73 14.5t65.5 39t51 57.5 t29.5 70q16 74 -25.5 127t-117.5 53q-37 0 -72.5 -14.5t-65.5 -39t-51.5 -57t-27.5 -69.5z" />
<glyph unicode="&#xb1;" d="M88 0l27 127h848l-27 -127h-848zM211 575l27 127h360l70 332h127l-70 -332h360l-26 -127h-361l-71 -331h-127l71 331h-360z" />
<glyph unicode="&#xb2;" horiz-adv-x="544" d="M150 578l22 108q129 127 213 208t137 138.5t79 100.5t36 94q10 43 -11.5 72.5t-80.5 29.5q-53 0 -80 -42t-33 -87h-145q4 49 25.5 93t57.5 78t84 53.5t107 19.5q141 0 192.5 -53.5t26.5 -169.5q-16 -72 -47 -125.5t-83 -108.5t-128 -125.5t-182 -175.5h330l-23 -108h-497 z" />
<glyph unicode="&#xb3;" horiz-adv-x="544" d="M163 753q7 42 11 60h131q-4 -29 -5 -54.5t7 -44t29.5 -29.5t58.5 -11q82 0 119 37t51 96q20 96 -17.5 132t-146.5 36l21 98q82 -6 137 31t72 110q10 51 -6.5 89t-83.5 38q-70 0 -98.5 -38.5t-36.5 -92.5h-130q14 111 85 172.5t202 61.5q119 0 178.5 -54.5t34.5 -166.5 q-12 -61 -43 -98.5t-66.5 -57.5t-69.5 -29.5t-56 -13.5v-4q207 -25 168 -215q-27 -125 -121 -185.5t-228 -60.5q-96 0 -139 33t-54 76t-4 85z" />
<glyph unicode="&#xb4;" horiz-adv-x="569" d="M375 1190l243 289h224l-330 -289h-137z" />
<glyph unicode="&#xb5;" d="M70 -391l303 1425h168l-152 -717q-20 -94 10.5 -151t120.5 -57q35 0 74 13t73.5 42t63.5 75t43 109l146 686h167l-174 -819q-10 -53 -19 -107.5t-15 -107.5h-179l27 125h-6q-57 -72 -134 -108.5t-159 -36.5q-27 0 -61.5 7t-44.5 13l-84 -391h-168z" />
<glyph unicode="&#xb6;" horiz-adv-x="901" d="M240.5 930.5q-11.5 70.5 5.5 150.5q10 47 36.5 116t80 131.5t136.5 106.5t206 44h401l-367 -1727h-143l338 1589h-168l-338 -1589h-143l200 940q-63 0 -115.5 31t-85 84t-44 123.5z" />
<glyph unicode="&#xb7;" horiz-adv-x="454" d="M219 412l45 213h193l-45 -213h-193z" />
<glyph unicode="&#xb8;" horiz-adv-x="569" d="M-27 -416l52 82q33 -12 61.5 -21.5t65.5 -9.5q39 0 81.5 17.5t53.5 64.5q8 43 -17.5 63.5t-66.5 20.5q-18 0 -40 -6t-40 -10l-27 39l166 176h98l-120 -123l4 -4q12 4 30.5 8t32.5 4q70 0 112 -40t25 -115q-10 -53 -40.5 -89t-69.5 -58.5t-83 -33t-85 -10.5 q-57 0 -106.5 14.5t-86.5 30.5z" />
<glyph unicode="&#xb9;" horiz-adv-x="544" d="M358 1206l27 121q12 4 35.5 17.5t49.5 29t50.5 30.5t40.5 26h127l-180 -852h-143l151 714z" />
<glyph unicode="&#xba;" horiz-adv-x="614" d="M278.5 1012.5q-8.5 62.5 12.5 165.5q14 68 35.5 128t59.5 105t96.5 71.5t146.5 26.5q86 0 133 -26.5t65.5 -71.5t14.5 -105.5t-19 -127.5q-20 -102 -56 -165t-79 -95.5t-93 -43t-103 -10.5q-55 0 -101.5 10.5t-75 43t-37 95zM413.5 1009.5q10.5 -61.5 94.5 -61.5 q43 0 71.5 14.5t50 47t37 84t31.5 127.5q12 63 12.5 103t-12 62.5t-35 30.5t-53.5 8t-57.5 -8t-48 -30.5t-38.5 -62.5t-30 -103q-33 -150 -22.5 -211.5z" />
<glyph unicode="&#xbb;" horiz-adv-x="909" d="M182 158l244 395l-76 401h156l104 -401l-268 -395h-160zM535 158l243 395l-76 401h156l105 -401l-269 -395h-159z" />
<glyph unicode="&#xbc;" horiz-adv-x="1363" d="M121 -55l1220 1534h127l-1218 -1534h-129zM358 1206l27 121q12 4 35.5 17.5t49.5 29t50.5 30.5t40.5 26h127l-180 -852h-143l151 714zM762 201l22 104l377 547h203l-113 -537h109l-25 -114h-108l-43 -201h-144l43 201h-321zM918 315h190l86 410h-4z" />
<glyph unicode="&#xbd;" horiz-adv-x="1363" d="M59 -55l1221 1534h127l-1219 -1534h-129zM297 1206l27 121q12 4 35.5 17.5t49 29t50 30.5t41.5 26h127l-181 -852h-143l152 714zM788 0l23 109q129 127 214 207.5t137 138t78 100.5t36 94q10 43 -11.5 73t-80.5 30q-53 0 -79 -42t-34 -87h-145q4 49 25.5 93t57 77.5 t84 53t107.5 19.5q141 0 192.5 -53t26.5 -170q-16 -72 -47 -125t-83 -108.5t-128 -126t-182 -174.5h330l-23 -109h-498z" />
<glyph unicode="&#xbe;" horiz-adv-x="1363" d="M173 753q7 42 11 60h131q-4 -29 -5 -54.5t7.5 -44t30 -29.5t58.5 -11q82 0 118.5 37t50.5 96q20 96 -17.5 132t-145.5 36l20 98q82 -6 137.5 31t71.5 110q10 51 -6.5 89t-83.5 38q-70 0 -98.5 -38.5t-36.5 -92.5h-129q14 111 84.5 172.5t201.5 61.5q119 0 178.5 -54.5 t34.5 -166.5q-12 -61 -42.5 -98.5t-66.5 -57.5t-70 -29.5t-56 -13.5v-4q207 -25 168 -215q-27 -125 -121 -185.5t-227 -60.5q-96 0 -139.5 33t-54.5 76t-4 85zM193 -55l1220 1534h127l-1218 -1534h-129zM793 201l22 104l377 547h203l-113 -537h109l-25 -114h-109l-43 -201 h-143l43 201h-321zM948 315h191l86 410h-4z" />
<glyph unicode="&#xbf;" horiz-adv-x="909" d="M88 -80q27 127 88.5 215t126 154.5t118.5 121t66 111.5l41 191h168l-49 -234q-14 -68 -65.5 -126t-111.5 -122.5t-114.5 -139.5t-76.5 -175q-6 -35 -5.5 -69.5t13 -64.5t38 -48.5t64.5 -18.5q55 0 93 30t61.5 73t37 92t21.5 90h193q-16 -94 -50 -172t-87.5 -133t-130 -86 t-179.5 -31q-160 0 -226.5 93t-33.5 249zM551 874l45 213h192l-45 -213h-192z" />
<glyph unicode="&#xc0;" horiz-adv-x="1251" d="M31 0l1096 1479h240l-146 -1479h-211l44 352h-571l-262 -352h-190zM599 516h474l95 789h-4zM1104 1923h224l59 -289h-137z" />
<glyph unicode="&#xc1;" horiz-adv-x="1251" d="M31 0l1096 1479h240l-146 -1479h-211l44 352h-571l-262 -352h-190zM599 516h474l95 789h-4zM1064 1634l304 289h224l-391 -289h-137z" />
<glyph unicode="&#xc2;" horiz-adv-x="1251" d="M31 0l1096 1479h240l-146 -1479h-211l44 352h-571l-262 -352h-190zM599 516h474l95 789h-4zM927 1634l327 289h188l83 -289h-164l-53 192l-218 -192h-163z" />
<glyph unicode="&#xc3;" horiz-adv-x="1251" d="M31 0l1096 1479h240l-146 -1479h-211l44 352h-571l-262 -352h-190zM599 516h474l95 789h-4zM876 1628q49 94 127 157.5t181 63.5q41 0 74 -11.5t63 -25.5q29 -16 54.5 -27.5t50.5 -11.5q96 0 143 92h105q-23 -43 -57.5 -84t-73.5 -71q-39 -31 -84 -49.5t-94 -18.5 q-33 0 -65.5 12.5t-65.5 26.5q-32 16 -64.5 27.5t-67.5 11.5t-73.5 -28.5t-57.5 -63.5h-95z" />
<glyph unicode="&#xc4;" horiz-adv-x="1251" d="M31 0l1096 1479h240l-146 -1479h-211l44 352h-571l-262 -352h-190zM599 516h474l95 789h-4zM957 1652l92 213h193l-92 -213h-193zM1318 1652l92 213h192l-92 -213h-192z" />
<glyph unicode="&#xc5;" horiz-adv-x="1251" d="M31 0l1096 1479h240l-146 -1479h-211l44 352h-571l-262 -352h-190zM599 516h474l95 789h-4zM1095.5 1670.5q-36.5 59.5 3.5 147.5q17 43 49.5 81t72.5 65.5t84.5 44t87.5 16.5q88 0 121 -60.5t-2 -146.5q-19 -43 -50.5 -81t-72.5 -65.5t-85.5 -44t-87.5 -16.5 q-84 0 -120.5 59.5zM1181.5 1732q20.5 -37 71.5 -37q49 0 101 37t74 86q21 51 0 87t-72 36t-101.5 -36t-71.5 -87q-22 -49 -1.5 -86z" />
<glyph unicode="&#xc6;" horiz-adv-x="1705" d="M31 0l962 1479h918l-35 -164h-608l-37 -475h528l-35 -164h-499l-37 -512h465l-35 -164h-627l25 352h-561l-226 -352h-198zM565 516h463l59 811h-4z" />
<glyph unicode="&#xc7;" horiz-adv-x="1138" d="M239.5 260q-10.5 113 28.5 295l88 418q33 158 88.5 261t130 164.5t168 86t203.5 24.5q221 0 286.5 -110.5t6.5 -327.5h-195q14 63 19.5 121.5t-16.5 93.5q-10 18 -30 29.5t-42.5 19.5t-44 11.5t-35.5 3.5q-57 0 -102 -15.5t-76 -35t-48.5 -38t-21.5 -26.5l-13 -19.5 t-23.5 -45t-33 -89t-38.5 -153.5l-84 -396q-29 -135 -25 -215.5t30.5 -122.5t73 -54.5t99.5 -12.5q23 0 62.5 8t84.5 39t87 92.5t65 169.5h194q-33 -172 -102.5 -266t-147 -138t-149.5 -53.5t-111 -9.5l-92 -92l4 -4q12 4 31 8t33 4q70 0 111.5 -40t25.5 -115 q-10 -53 -41 -89t-69.5 -58.5t-82.5 -33t-85 -10.5q-57 0 -106.5 14.5t-86.5 30.5l51 82q33 -12 61.5 -21.5t65.5 -9.5q39 0 82 17.5t53 64.5q8 43 -17.5 63.5t-66.5 20.5q-18 0 -39.5 -6t-39.5 -10l-27 39l139 149q-63 4 -125.5 28t-103.5 85t-51.5 174z" />
<glyph unicode="&#xc8;" d="M166 0l627 1479h762l-69 -164h-573l-202 -475h533l-70 -164h-532l-218 -512h586l-70 -164h-774zM990 1923h224l59 -289h-137z" />
<glyph unicode="&#xc9;" d="M166 0l627 1479h762l-69 -164h-573l-202 -475h533l-70 -164h-532l-218 -512h586l-70 -164h-774zM950 1634l304 289h224l-391 -289h-137z" />
<glyph unicode="&#xca;" d="M166 0l627 1479h762l-69 -164h-573l-202 -475h533l-70 -164h-532l-218 -512h586l-70 -164h-774zM813 1634l327 289h188l83 -289h-164l-53 192l-218 -192h-163z" />
<glyph unicode="&#xcb;" d="M166 0l627 1479h762l-69 -164h-573l-202 -475h533l-70 -164h-532l-218 -512h586l-70 -164h-774zM843 1652l92 213h193l-92 -213h-193zM1204 1652l92 213h192l-92 -213h-192z" />
<glyph unicode="&#xcc;" horiz-adv-x="569" d="M190 0l628 1479h188l-627 -1479h-189zM762 1923h224l59 -289h-137z" />
<glyph unicode="&#xcd;" horiz-adv-x="569" d="M190 0l628 1479h188l-627 -1479h-189zM722 1634l304 289h224l-391 -289h-137z" />
<glyph unicode="&#xce;" horiz-adv-x="569" d="M190 0l628 1479h188l-627 -1479h-189zM585 1634l327 289h188l83 -289h-164l-53 192l-218 -192h-163z" />
<glyph unicode="&#xcf;" horiz-adv-x="569" d="M190 0l628 1479h188l-627 -1479h-189zM615 1652l92 213h193l-92 -213h-193zM976 1652l92 213h192l-92 -213h-192z" />
<glyph unicode="&#xd0;" horiz-adv-x="1251" d="M170 0l160 750h-144l25 114h143l129 615h455q143 0 231 -53.5t119 -172.5q12 -47 10 -118.5t-10 -143t-19.5 -129t-13.5 -76.5q-51 -238 -103 -380t-114 -216q-82 -96 -207.5 -143t-320.5 -47h-340zM393 164h178q98 0 171 20.5t126.5 71.5t91 136t64.5 214l63 299 q47 225 -4 317.5t-198 92.5h-248l-94 -451h309l-25 -114h-309z" />
<glyph unicode="&#xd1;" horiz-adv-x="1366" d="M176 0l627 1479h267l38 -1266h4l537 1266h168l-627 -1479h-258l-38 1282h-5l-545 -1282h-168zM934 1628q49 94 127 157.5t181 63.5q41 0 74 -11.5t63 -25.5q29 -16 54.5 -27.5t50.5 -11.5q96 0 143 92h105q-23 -43 -57.5 -84t-73.5 -71q-39 -31 -84 -49.5t-94 -18.5 q-33 0 -65.5 12.5t-65.5 26.5q-32 16 -64.5 27.5t-67.5 11.5t-73.5 -28.5t-57.5 -63.5h-95z" />
<glyph unicode="&#xd2;" horiz-adv-x="1251" d="M317 101q-58 132 72 440l206 485q94 221 265.5 352t406.5 131q233 0 292.5 -131t-34.5 -352l-206 -485q-131 -307 -301.5 -439.5t-406.5 -132.5t-294 132zM510 208q16 -46 59 -63.5t109 -17.5q68 0 125.5 17.5t111.5 63.5t106 125t102 199l212 500q50 117 43.5 181.5 t-39 95t-75.5 37t-66 6.5t-69.5 -6.5t-105.5 -37t-121 -95t-112 -181.5l-212 -500q-51 -121 -67.5 -199.5t-0.5 -124.5zM1104 1923h224l59 -289h-137z" />
<glyph unicode="&#xd3;" horiz-adv-x="1251" d="M317 101q-58 132 72 440l206 485q94 221 265.5 352t406.5 131q233 0 292.5 -131t-34.5 -352l-206 -485q-131 -307 -301.5 -439.5t-406.5 -132.5t-294 132zM510 208q16 -46 59 -63.5t109 -17.5q68 0 125.5 17.5t111.5 63.5t106 125t102 199l212 500q50 117 43.5 181.5 t-39 95t-75.5 37t-66 6.5t-69.5 -6.5t-105.5 -37t-121 -95t-112 -181.5l-212 -500q-51 -121 -67.5 -199.5t-0.5 -124.5zM1064 1634l304 289h224l-391 -289h-137z" />
<glyph unicode="&#xd4;" horiz-adv-x="1251" d="M317 101q-58 132 72 440l206 485q94 221 265.5 352t406.5 131q233 0 292.5 -131t-34.5 -352l-206 -485q-131 -307 -301.5 -439.5t-406.5 -132.5t-294 132zM510 208q16 -46 59 -63.5t109 -17.5q68 0 125.5 17.5t111.5 63.5t106 125t102 199l212 500q50 117 43.5 181.5 t-39 95t-75.5 37t-66 6.5t-69.5 -6.5t-105.5 -37t-121 -95t-112 -181.5l-212 -500q-51 -121 -67.5 -199.5t-0.5 -124.5zM927 1634l327 289h188l83 -289h-164l-53 192l-218 -192h-163z" />
<glyph unicode="&#xd5;" horiz-adv-x="1251" d="M317 101q-58 132 72 440l206 485q94 221 265.5 352t406.5 131q233 0 292.5 -131t-34.5 -352l-206 -485q-131 -307 -301.5 -439.5t-406.5 -132.5t-294 132zM510 208q16 -46 59 -63.5t109 -17.5q68 0 125.5 17.5t111.5 63.5t106 125t102 199l212 500q50 117 43.5 181.5 t-39 95t-75.5 37t-66 6.5t-69.5 -6.5t-105.5 -37t-121 -95t-112 -181.5l-212 -500q-51 -121 -67.5 -199.5t-0.5 -124.5zM876 1628q49 94 127 157.5t181 63.5q41 0 74 -11.5t63 -25.5q29 -16 54.5 -27.5t50.5 -11.5q96 0 143 92h105q-23 -43 -57.5 -84t-73.5 -71 q-39 -31 -84 -49.5t-94 -18.5q-33 0 -65.5 12.5t-65.5 26.5q-32 16 -64.5 27.5t-67.5 11.5t-73.5 -28.5t-57.5 -63.5h-95z" />
<glyph unicode="&#xd6;" horiz-adv-x="1251" d="M317 101q-58 132 72 440l206 485q94 221 265.5 352t406.5 131q233 0 292.5 -131t-34.5 -352l-206 -485q-131 -307 -301.5 -439.5t-406.5 -132.5t-294 132zM510 208q16 -46 59 -63.5t109 -17.5q68 0 125.5 17.5t111.5 63.5t106 125t102 199l212 500q50 117 43.5 181.5 t-39 95t-75.5 37t-66 6.5t-69.5 -6.5t-105.5 -37t-121 -95t-112 -181.5l-212 -500q-51 -121 -67.5 -199.5t-0.5 -124.5zM957 1652l92 213h193l-92 -213h-193zM1318 1652l92 213h192l-92 -213h-192z" />
<glyph unicode="&#xd7;" d="M127 184l405 334l-264 334l111 90l262 -334l406 334l69 -90l-403 -334l262 -334l-109 -90l-264 334l-403 -334z" />
<glyph unicode="&#xd8;" horiz-adv-x="1251" d="M80 -20l182 208q-35 127 12 353l103 485q47 221 190.5 352t378.5 131q127 0 209 -38.5t125 -106.5l137 162l62 -47l-168 -195q31 -102 -4 -258l-103 -485q-66 -307 -208 -439.5t-378 -132.5q-238 0 -325 142l-154 -179zM446 287q12 -90 63.5 -125t141.5 -35 q68 0 122 17.5t98 63.5t79 125t60 199l106 500q4 23 6 33zM446 401l678 785q-8 59 -35.5 93t-61.5 50.5t-65.5 19.5t-50.5 3q-23 0 -68.5 -6.5t-98 -37t-100.5 -95t-73 -181.5l-106 -500q-8 -37 -13.5 -69.5t-5.5 -61.5z" />
<glyph unicode="&#xd9;" horiz-adv-x="1251" d="M317 101q-58 132 72 440l398 938h189l-402 -947q-51 -121 -66.5 -199.5t0 -124.5t60.5 -63.5t110 -17.5q68 0 126.5 17.5t114 63.5t107 125t101.5 199l401 947h189l-398 -938q-131 -307 -301.5 -439.5t-406.5 -132.5t-294 132zM1104 1923h224l59 -289h-137z" />
<glyph unicode="&#xda;" horiz-adv-x="1251" d="M317 101q-58 132 72 440l398 938h189l-402 -947q-51 -121 -66.5 -199.5t0 -124.5t60.5 -63.5t110 -17.5q68 0 126.5 17.5t114 63.5t107 125t101.5 199l401 947h189l-398 -938q-131 -307 -301.5 -439.5t-406.5 -132.5t-294 132zM1064 1634l304 289h224l-391 -289h-137z " />
<glyph unicode="&#xdb;" horiz-adv-x="1251" d="M317 101q-58 132 72 440l398 938h189l-402 -947q-51 -121 -66.5 -199.5t0 -124.5t60.5 -63.5t110 -17.5q68 0 126.5 17.5t114 63.5t107 125t101.5 199l401 947h189l-398 -938q-131 -307 -301.5 -439.5t-406.5 -132.5t-294 132zM927 1634l327 289h188l83 -289h-164 l-53 192l-218 -192h-163z" />
<glyph unicode="&#xdc;" horiz-adv-x="1251" d="M317 101q-58 132 72 440l398 938h189l-402 -947q-51 -121 -66.5 -199.5t0 -124.5t60.5 -63.5t110 -17.5q68 0 126.5 17.5t114 63.5t107 125t101.5 199l401 947h189l-398 -938q-131 -307 -301.5 -439.5t-406.5 -132.5t-294 132zM957 1652l92 213h193l-92 -213h-193z M1318 1652l92 213h192l-92 -213h-192z" />
<glyph unicode="&#xdd;" d="M414 0l238 563l-8 916h211l-15 -715l602 715h191l-792 -916l-239 -563h-188zM950 1634l304 289h224l-391 -289h-137z" />
<glyph unicode="&#xde;" horiz-adv-x="1138" d="M190 0l314 1479h188l-51 -250h250q74 0 143.5 -17.5t118.5 -63.5t67.5 -128t-8.5 -213q-27 -125 -87 -205t-132.5 -124t-148.5 -60.5t-131 -16.5h-248l-86 -401h-189zM500 565h207q29 0 74.5 7.5t93 33t88.5 75.5t59 136q18 84 2 133t-47 75t-63.5 33t-47.5 7h-260z" />
<glyph unicode="&#xdf;" horiz-adv-x="1138" d="M143 0l252 1186q20 98 77.5 160.5t127.5 98.5t138.5 50t111.5 14q76 0 141.5 -15t111.5 -50t64.5 -94.5t-0.5 -149.5q-16 -76 -61 -126t-94 -91q-51 -41 -95.5 -77t-54.5 -83q-6 -37 12.5 -66.5t49 -60t67.5 -64.5t65.5 -77t41 -101.5t-3.5 -136.5q-8 -39 -29 -97 t-64 -111.5t-114.5 -92.5t-179.5 -39q-70 0 -123.5 14.5t-86 48.5t-43 87t6.5 129h176q-18 -63 5.5 -102t90.5 -39q43 0 74 16t52.5 43t34.5 60.5t19 68.5q14 61 -2 103.5t-45.5 77t-67.5 65.5t-68 66.5t-45 82.5t-1 115q12 49 54 94t93 90q47 45 90.5 91.5t53.5 95.5 q20 94 -22 141t-130 47q-80 0 -130 -24.5t-78.5 -61.5t-43 -82t-22.5 -86l-238 -1118h-168z" />
<glyph unicode="&#xe0;" d="M223 183.5q13 62.5 46 135.5q50 117 129 183.5t172.5 97.5t192.5 37t186 4q23 51 43.5 102.5t20.5 92.5t-25 66.5t-93 25.5q-84 0 -148 -51.5t-91 -133.5h-183q80 174 199 243t283 69q100 0 155.5 -24.5t75.5 -66.5t11 -98.5t-38 -122.5l-210 -497q-27 -61 -47.5 -124 t-37.5 -122h-184l65 150h-4q-78 -90 -157.5 -130t-175.5 -40q-82 0 -126 25.5t-58 70.5t-1 107.5zM414 174q14 -57 98 -57q39 0 85 15t97.5 58t102 121t96.5 203q-59 0 -126 -2t-130 -20.5t-117 -60.5t-88 -124q-32 -76 -18 -133zM895 1479h224l59 -289h-137z" />
<glyph unicode="&#xe1;" d="M223 183.5q13 62.5 46 135.5q50 117 129 183.5t172.5 97.5t192.5 37t186 4q23 51 43.5 102.5t20.5 92.5t-25 66.5t-93 25.5q-84 0 -148 -51.5t-91 -133.5h-183q80 174 199 243t283 69q100 0 155.5 -24.5t75.5 -66.5t11 -98.5t-38 -122.5l-210 -497q-27 -61 -47.5 -124 t-37.5 -122h-184l65 150h-4q-78 -90 -157.5 -130t-175.5 -40q-82 0 -126 25.5t-58 70.5t-1 107.5zM414 174q14 -57 98 -57q39 0 85 15t97.5 58t102 121t96.5 203q-59 0 -126 -2t-130 -20.5t-117 -60.5t-88 -124q-32 -76 -18 -133zM855 1190l304 289h224l-391 -289h-137z" />
<glyph unicode="&#xe2;" d="M223 183.5q13 62.5 46 135.5q50 117 129 183.5t172.5 97.5t192.5 37t186 4q23 51 43.5 102.5t20.5 92.5t-25 66.5t-93 25.5q-84 0 -148 -51.5t-91 -133.5h-183q80 174 199 243t283 69q100 0 155.5 -24.5t75.5 -66.5t11 -98.5t-38 -122.5l-210 -497q-27 -61 -47.5 -124 t-37.5 -122h-184l65 150h-4q-78 -90 -157.5 -130t-175.5 -40q-82 0 -126 25.5t-58 70.5t-1 107.5zM414 174q14 -57 98 -57q39 0 85 15t97.5 58t102 121t96.5 203q-59 0 -126 -2t-130 -20.5t-117 -60.5t-88 -124q-32 -76 -18 -133zM718 1190l327 289h188l83 -289h-164 l-53 192l-218 -192h-163z" />
<glyph unicode="&#xe3;" d="M223 183.5q13 62.5 46 135.5q50 117 129 183.5t172.5 97.5t192.5 37t186 4q23 51 43.5 102.5t20.5 92.5t-25 66.5t-93 25.5q-84 0 -148 -51.5t-91 -133.5h-183q80 174 199 243t283 69q100 0 155.5 -24.5t75.5 -66.5t11 -98.5t-38 -122.5l-210 -497q-27 -61 -47.5 -124 t-37.5 -122h-184l65 150h-4q-78 -90 -157.5 -130t-175.5 -40q-82 0 -126 25.5t-58 70.5t-1 107.5zM414 174q14 -57 98 -57q39 0 85 15t97.5 58t102 121t96.5 203q-59 0 -126 -2t-130 -20.5t-117 -60.5t-88 -124q-32 -76 -18 -133zM667 1184q49 94 127 157.5t181 63.5 q41 0 74 -11.5t63 -25.5q29 -16 54.5 -27.5t50.5 -11.5q96 0 143 92h105q-23 -43 -57.5 -84t-73.5 -71q-39 -31 -84 -49.5t-94 -18.5q-33 0 -65.5 12.5t-65.5 26.5q-32 16 -64.5 27.5t-67.5 11.5t-73.5 -28.5t-57.5 -63.5h-95z" />
<glyph unicode="&#xe4;" d="M223 183.5q13 62.5 46 135.5q50 117 129 183.5t172.5 97.5t192.5 37t186 4q23 51 43.5 102.5t20.5 92.5t-25 66.5t-93 25.5q-84 0 -148 -51.5t-91 -133.5h-183q80 174 199 243t283 69q100 0 155.5 -24.5t75.5 -66.5t11 -98.5t-38 -122.5l-210 -497q-27 -61 -47.5 -124 t-37.5 -122h-184l65 150h-4q-78 -90 -157.5 -130t-175.5 -40q-82 0 -126 25.5t-58 70.5t-1 107.5zM414 174q14 -57 98 -57q39 0 85 15t97.5 58t102 121t96.5 203q-59 0 -126 -2t-130 -20.5t-117 -60.5t-88 -124q-32 -76 -18 -133zM748 1208l92 213h193l-92 -213h-193z M1109 1208l92 213h192l-92 -213h-192z" />
<glyph unicode="&#xe5;" d="M223 183.5q13 62.5 46 135.5q50 117 129 183.5t172.5 97.5t192.5 37t186 4q23 51 43.5 102.5t20.5 92.5t-25 66.5t-93 25.5q-84 0 -148 -51.5t-91 -133.5h-183q80 174 199 243t283 69q100 0 155.5 -24.5t75.5 -66.5t11 -98.5t-38 -122.5l-210 -497q-27 -61 -47.5 -124 t-37.5 -122h-184l65 150h-4q-78 -90 -157.5 -130t-175.5 -40q-82 0 -126 25.5t-58 70.5t-1 107.5zM414 174q14 -57 98 -57q39 0 85 15t97.5 58t102 121t96.5 203q-59 0 -126 -2t-130 -20.5t-117 -60.5t-88 -124q-32 -76 -18 -133zM886.5 1226.5q-36.5 59.5 3.5 147.5 q17 43 49.5 81t72.5 65.5t84.5 44t87.5 16.5q88 0 121 -60.5t-2 -146.5q-19 -43 -50.5 -81t-72.5 -65.5t-85.5 -44t-87.5 -16.5q-84 0 -120.5 59.5zM972.5 1288q20.5 -37 71.5 -37q49 0 101 37t74 86q21 51 0 87t-72 36t-101.5 -36t-71.5 -87q-22 -49 -1.5 -86z" />
<glyph unicode="&#xe6;" horiz-adv-x="1593" d="M199 289q27 129 93 194.5t153 93t187.5 31.5t196.5 10l23 105q23 102 -10 153.5t-140 51.5q-84 0 -137 -51.5t-63 -133.5h-183q43 174 147.5 243t268.5 69q47 0 91 -5.5t81 -20.5t61.5 -45t30.5 -79h5q20 41 54 70t73.5 46t82.5 25.5t82 8.5q61 0 131 -12.5t118 -66.5 t59.5 -168t-43.5 -316h-580q-10 -55 -21.5 -120t-6.5 -122t38 -95t109 -38q104 0 158.5 60.5t78.5 154.5h183q-10 -55 -35 -116.5t-76 -114t-134 -87t-214 -34.5q-47 0 -92 11t-80 33.5t-57.5 57.5t-28.5 84q-66 -104 -164 -145t-201 -41q-150 0 -210 80.5t-29 228.5z M385 289q-16 -76 12.5 -124t112.5 -48q39 0 82 12t83 51t74 114t54 198q-59 0 -126 -1.5t-126 -18.5t-104.5 -59t-61.5 -124zM1008 618h401q14 53 18.5 108.5t-8 100.5t-47.5 73t-102 28q-25 0 -60.5 -9.5t-72.5 -41t-72 -93t-57 -166.5z" />
<glyph unicode="&#xe7;" d="M201 -416l51 82q33 -12 61.5 -21.5t65.5 -9.5q39 0 82 17.5t53 64.5q8 43 -17.5 63.5t-66.5 20.5q-18 0 -39.5 -6t-40.5 -10l-26 39l149 158q-68 6 -122 30.5t-86 83t-36 155.5t29 251q25 115 57.5 215t88 175t143.5 119t221 44q158 0 223.5 -89t20.5 -264h-174 q14 63 10 105.5t-20.5 67t-40 34t-48.5 9.5q-47 0 -90 -14.5t-80 -52.5t-66.5 -104.5t-51.5 -173.5q-29 -125 -37 -213t4 -141t49 -77.5t102 -24.5q14 0 43 9t58.5 34.5t57.5 69.5t40 114h176q-20 -100 -64 -169t-98.5 -109.5t-111 -60t-101.5 -23.5l-102 -105l4 -4 q12 4 30.5 8t33.5 4q70 0 111.5 -40t25.5 -115q-10 -53 -41 -89t-70 -58.5t-83 -33t-85 -10.5q-57 0 -106 14.5t-86 30.5z" />
<glyph unicode="&#xe8;" d="M258.5 227.5q12.5 102.5 86.5 274.5q49 115 103 215t125 175t168 119t231 44q111 0 169.5 -31t73 -93.5t-9.5 -156.5t-78 -223l-38 -88h-581q-46 -109 -60 -176.5t-4 -105.5t43.5 -51t82.5 -13q86 0 155.5 59.5t109.5 136.5h184q-76 -174 -207.5 -253.5t-295.5 -79.5 q-82 0 -147 17t-94 72.5t-16.5 158zM561 590h404q49 113 62 179.5t1 102t-45.5 46t-80.5 10.5q-39 0 -79.5 -12.5t-83.5 -49.5t-86.5 -102.5t-91.5 -173.5zM895 1479h224l59 -289h-137z" />
<glyph unicode="&#xe9;" d="M258.5 227.5q12.5 102.5 86.5 274.5q49 115 103 215t125 175t168 119t231 44q111 0 169.5 -31t73 -93.5t-9.5 -156.5t-78 -223l-38 -88h-581q-46 -109 -60 -176.5t-4 -105.5t43.5 -51t82.5 -13q86 0 155.5 59.5t109.5 136.5h184q-76 -174 -207.5 -253.5t-295.5 -79.5 q-82 0 -147 17t-94 72.5t-16.5 158zM561 590h404q49 113 62 179.5t1 102t-45.5 46t-80.5 10.5q-39 0 -79.5 -12.5t-83.5 -49.5t-86.5 -102.5t-91.5 -173.5zM855 1190l304 289h224l-391 -289h-137z" />
<glyph unicode="&#xea;" d="M258.5 227.5q12.5 102.5 86.5 274.5q49 115 103 215t125 175t168 119t231 44q111 0 169.5 -31t73 -93.5t-9.5 -156.5t-78 -223l-38 -88h-581q-46 -109 -60 -176.5t-4 -105.5t43.5 -51t82.5 -13q86 0 155.5 59.5t109.5 136.5h184q-76 -174 -207.5 -253.5t-295.5 -79.5 q-82 0 -147 17t-94 72.5t-16.5 158zM561 590h404q49 113 62 179.5t1 102t-45.5 46t-80.5 10.5q-39 0 -79.5 -12.5t-83.5 -49.5t-86.5 -102.5t-91.5 -173.5zM718 1190l327 289h188l83 -289h-164l-53 192l-218 -192h-163z" />
<glyph unicode="&#xeb;" d="M258.5 227.5q12.5 102.5 86.5 274.5q49 115 103 215t125 175t168 119t231 44q111 0 169.5 -31t73 -93.5t-9.5 -156.5t-78 -223l-38 -88h-581q-46 -109 -60 -176.5t-4 -105.5t43.5 -51t82.5 -13q86 0 155.5 59.5t109.5 136.5h184q-76 -174 -207.5 -253.5t-295.5 -79.5 q-82 0 -147 17t-94 72.5t-16.5 158zM561 590h404q49 113 62 179.5t1 102t-45.5 46t-80.5 10.5q-39 0 -79.5 -12.5t-83.5 -49.5t-86.5 -102.5t-91.5 -173.5zM748 1208l92 213h193l-92 -213h-193zM1109 1208l92 213h192l-92 -213h-192z" />
<glyph unicode="&#xec;" horiz-adv-x="454" d="M143 0l439 1034h168l-439 -1034h-168zM611 1479h224l59 -289h-137z" />
<glyph unicode="&#xed;" horiz-adv-x="454" d="M143 0l439 1034h168l-439 -1034h-168zM571 1190l304 289h224l-391 -289h-137z" />
<glyph unicode="&#xee;" horiz-adv-x="454" d="M143 0l439 1034h168l-439 -1034h-168zM434 1190l327 289h188l83 -289h-164l-53 192l-218 -192h-163z" />
<glyph unicode="&#xef;" horiz-adv-x="454" d="M143 0l439 1034h168l-439 -1034h-168zM464 1208l92 213h193l-92 -213h-193zM825 1208l92 213h192l-92 -213h-192z" />
<glyph unicode="&#xf0;" d="M196.5 222.5q-8.5 101.5 26.5 269.5q25 111 55.5 210t85 172.5t136.5 116.5t207 43q66 0 101.5 -18.5t63.5 -57.5l7 5q-8 68 -39 139.5t-103 169.5l-202 -105l-50 62l191 100q-39 41 -76 68.5t-72 48.5l134 96q92 -51 169 -131l216 113l47 -68l-209 -108q59 -76 99 -157 t57.5 -181.5t10 -226.5t-41.5 -291q-35 -168 -87.5 -269.5t-117 -155t-140 -70.5t-157.5 -17t-150.5 17t-110.5 70.5t-50.5 155zM379 353q-8 -85 5 -138t50 -76.5t103 -23.5t112.5 23.5t82.5 76.5t62.5 138t53.5 208q23 104 20.5 170t-23 103.5t-57 51t-86.5 13.5 q-47 0 -90 -13.5t-79.5 -51t-66.5 -103t-52 -170.5q-27 -123 -35 -208z" />
<glyph unicode="&#xf1;" d="M147 0l349 819q23 53 43 107.5t37 107.5h179l-55 -133h8q86 88 162.5 121t176.5 33q84 0 127.5 -23.5t56.5 -68.5t-2.5 -106.5t-48.5 -139.5l-303 -717h-168l303 717q19 41 26 77.5t-1 64.5t-38 43.5t-83 15.5q-70 0 -123 -28t-93.5 -72t-70.5 -98t-53 -108l-261 -612 h-168zM667 1184q49 94 127 157.5t181 63.5q41 0 74 -11.5t63 -25.5q29 -16 54.5 -27.5t50.5 -11.5q96 0 143 92h105q-23 -43 -57.5 -84t-73.5 -71q-39 -31 -84 -49.5t-94 -18.5q-33 0 -65.5 12.5t-65.5 26.5q-32 16 -64.5 27.5t-67.5 11.5t-73.5 -28.5t-57.5 -63.5h-95z" />
<glyph unicode="&#xf2;" d="M246 227.5q12 102.5 86 274.5q49 115 103 215t125.5 175t168.5 119t230 44q135 0 195 -44t68.5 -119t-23.5 -175.5t-80 -214.5q-74 -172 -148 -274.5t-150.5 -158t-155.5 -72.5t-161 -17t-147 17t-94 72.5t-17 158zM431.5 219q0.5 -53 32.5 -77.5t98 -24.5t117.5 24.5 t99 77.5t93.5 141.5t102 212.5q45 106 57 173t-0.5 105t-46 52.5t-82.5 14.5q-47 0 -93.5 -14.5t-91 -52.5t-88.5 -104.5t-89 -173.5q-56 -125 -82.5 -213t-26 -141zM895 1479h224l59 -289h-137z" />
<glyph unicode="&#xf3;" d="M246 227.5q12 102.5 86 274.5q49 115 103 215t125.5 175t168.5 119t230 44q135 0 195 -44t68.5 -119t-23.5 -175.5t-80 -214.5q-74 -172 -148 -274.5t-150.5 -158t-155.5 -72.5t-161 -17t-147 17t-94 72.5t-17 158zM431.5 219q0.5 -53 32.5 -77.5t98 -24.5t117.5 24.5 t99 77.5t93.5 141.5t102 212.5q45 106 57 173t-0.5 105t-46 52.5t-82.5 14.5q-47 0 -93.5 -14.5t-91 -52.5t-88.5 -104.5t-89 -173.5q-56 -125 -82.5 -213t-26 -141zM855 1190l304 289h224l-391 -289h-137z" />
<glyph unicode="&#xf4;" d="M246 227.5q12 102.5 86 274.5q49 115 103 215t125.5 175t168.5 119t230 44q135 0 195 -44t68.5 -119t-23.5 -175.5t-80 -214.5q-74 -172 -148 -274.5t-150.5 -158t-155.5 -72.5t-161 -17t-147 17t-94 72.5t-17 158zM431.5 219q0.5 -53 32.5 -77.5t98 -24.5t117.5 24.5 t99 77.5t93.5 141.5t102 212.5q45 106 57 173t-0.5 105t-46 52.5t-82.5 14.5q-47 0 -93.5 -14.5t-91 -52.5t-88.5 -104.5t-89 -173.5q-56 -125 -82.5 -213t-26 -141zM718 1190l327 289h188l83 -289h-164l-53 192l-218 -192h-163z" />
<glyph unicode="&#xf5;" d="M246 227.5q12 102.5 86 274.5q49 115 103 215t125.5 175t168.5 119t230 44q135 0 195 -44t68.5 -119t-23.5 -175.5t-80 -214.5q-74 -172 -148 -274.5t-150.5 -158t-155.5 -72.5t-161 -17t-147 17t-94 72.5t-17 158zM431.5 219q0.5 -53 32.5 -77.5t98 -24.5t117.5 24.5 t99 77.5t93.5 141.5t102 212.5q45 106 57 173t-0.5 105t-46 52.5t-82.5 14.5q-47 0 -93.5 -14.5t-91 -52.5t-88.5 -104.5t-89 -173.5q-56 -125 -82.5 -213t-26 -141zM667 1184q49 94 127 157.5t181 63.5q41 0 74 -11.5t63 -25.5q29 -16 54.5 -27.5t50.5 -11.5q96 0 143 92 h105q-23 -43 -57.5 -84t-73.5 -71q-39 -31 -84 -49.5t-94 -18.5q-33 0 -65.5 12.5t-65.5 26.5q-32 16 -64.5 27.5t-67.5 11.5t-73.5 -28.5t-57.5 -63.5h-95z" />
<glyph unicode="&#xf6;" d="M246 227.5q12 102.5 86 274.5q49 115 103 215t125.5 175t168.5 119t230 44q135 0 195 -44t68.5 -119t-23.5 -175.5t-80 -214.5q-74 -172 -148 -274.5t-150.5 -158t-155.5 -72.5t-161 -17t-147 17t-94 72.5t-17 158zM431.5 219q0.5 -53 32.5 -77.5t98 -24.5t117.5 24.5 t99 77.5t93.5 141.5t102 212.5q45 106 57 173t-0.5 105t-46 52.5t-82.5 14.5q-47 0 -93.5 -14.5t-91 -52.5t-88.5 -104.5t-89 -173.5q-56 -125 -82.5 -213t-26 -141zM748 1208l92 213h193l-92 -213h-193zM1109 1208l92 213h192l-92 -213h-192z" />
<glyph unicode="&#xf7;" d="M184 455l27 127h848l-27 -127h-848zM416 0l45 213h192l-45 -213h-192zM590 823l47 213h192l-47 -213h-192z" />
<glyph unicode="&#xf8;" d="M68 -27l149 160q-20 61 -19 150.5t27 218.5q25 115 57.5 215t88 175t143.5 119t221 44q98 0 159.5 -23.5t96.5 -64.5l129 137l56 -41l-148 -160q29 -76 18.5 -179t-34.5 -222q-37 -172 -89.5 -274.5t-117 -158t-140 -72.5t-157.5 -17t-149.5 17t-108.5 71l-127 -140z M379 307l481 518q-16 53 -57 73t-96 20q-47 0 -90.5 -14.5t-80 -52.5t-66.5 -104.5t-52 -173.5q-37 -170 -39 -266zM387 213q27 -96 150 -96q66 0 112.5 24.5t82.5 77.5t63.5 141.5t56.5 212.5q20 104 18 162z" />
<glyph unicode="&#xf9;" d="M244.5 46.5q-42.5 66.5 14.5 199.5l334 788h168l-305 -717q-40 -94 -21.5 -151t108.5 -57q35 0 77 13t82.5 42t79.5 75t66 109l292 686h167l-348 -819q-22 -53 -42.5 -107.5t-37.5 -107.5h-179l54 125h-6q-73 -72 -157.5 -108.5t-166.5 -36.5q-137 0 -179.5 66.5z M895 1479h224l59 -289h-137z" />
<glyph unicode="&#xfa;" d="M244.5 46.5q-42.5 66.5 14.5 199.5l334 788h168l-305 -717q-40 -94 -21.5 -151t108.5 -57q35 0 77 13t82.5 42t79.5 75t66 109l292 686h167l-348 -819q-22 -53 -42.5 -107.5t-37.5 -107.5h-179l54 125h-6q-73 -72 -157.5 -108.5t-166.5 -36.5q-137 0 -179.5 66.5z M855 1190l304 289h224l-391 -289h-137z" />
<glyph unicode="&#xfb;" d="M244.5 46.5q-42.5 66.5 14.5 199.5l334 788h168l-305 -717q-40 -94 -21.5 -151t108.5 -57q35 0 77 13t82.5 42t79.5 75t66 109l292 686h167l-348 -819q-22 -53 -42.5 -107.5t-37.5 -107.5h-179l54 125h-6q-73 -72 -157.5 -108.5t-166.5 -36.5q-137 0 -179.5 66.5z M718 1190l327 289h188l83 -289h-164l-53 192l-218 -192h-163z" />
<glyph unicode="&#xfc;" d="M244.5 46.5q-42.5 66.5 14.5 199.5l334 788h168l-305 -717q-40 -94 -21.5 -151t108.5 -57q35 0 77 13t82.5 42t79.5 75t66 109l292 686h167l-348 -819q-22 -53 -42.5 -107.5t-37.5 -107.5h-179l54 125h-6q-73 -72 -157.5 -108.5t-166.5 -36.5q-137 0 -179.5 66.5z M748 1208l92 213h193l-92 -213h-193zM1109 1208l92 213h192l-92 -213h-192z" />
<glyph unicode="&#xfd;" horiz-adv-x="909" d="M83 -391l284 391l89 1034h194l-109 -841h4l605 841h182l-1075 -1425h-174zM798 1190l304 289h224l-391 -289h-137z" />
<glyph unicode="&#xfe;" d="M78 -391l397 1870h168l-119 -568h4q57 72 120 108t138 36q127 0 185.5 -50.5t74 -130t1 -179t-34.5 -195.5q-37 -170 -87.5 -272.5t-109.5 -158t-122.5 -72.5t-125.5 -17q-80 0 -129 31.5t-80 92.5h-6l-106 -495h-168zM405.5 278.5q2.5 -67.5 31 -114.5t106.5 -47 q80 0 130 38t82.5 94t50 123.5t30.5 125.5q20 104 30.5 182t0 131t-45.5 80t-102 27q-70 0 -117 -37t-77.5 -91.5t-48 -117t-27.5 -113.5q-12 -59 -29 -136t-14.5 -144.5z" />
<glyph unicode="&#xff;" horiz-adv-x="909" d="M83 -391l284 391l89 1034h194l-109 -841h4l605 841h182l-1075 -1425h-174zM691 1208l92 213h193l-92 -213h-193zM1052 1208l92 213h192l-92 -213h-192z" />
<glyph unicode="&#x152;" horiz-adv-x="1705" d="M240.5 297q-7.5 104 23.5 254l74 344q35 162 88 273.5t126 180t165 99.5t201 31h1019l-34 -164h-574l-100 -475h532l-35 -164h-532l-109 -512h586l-35 -164h-977q-133 0 -223 29.5t-139 96.5t-56.5 171zM436.5 398.5q-4.5 -72.5 14 -125t64.5 -81t128 -28.5h254l244 1151 h-271q-61 0 -111 -17.5t-92 -64.5t-76 -130t-63 -216l-69 -328q-18 -88 -22.5 -160.5z" />
<glyph unicode="&#x153;" horiz-adv-x="1593" d="M197.5 227.5q-9.5 102.5 27.5 274.5q25 115 57.5 215t88 175t143.5 119t221 44q47 0 94.5 -8.5t84 -28t60 -52t21.5 -83.5h4q53 92 136.5 132t199.5 40q111 0 176.5 -31t93 -93.5t23.5 -156.5t-31 -223l-18 -88h-582q-23 -109 -22.5 -176.5t19 -105.5t54 -51t85.5 -13 q86 0 143 59.5t80 136.5h184q-39 -174 -153.5 -253.5t-278.5 -79.5q-51 0 -97 6t-84 24.5t-63.5 50t-34.5 82.5q-72 -98 -150.5 -130.5t-170.5 -32.5q-82 0 -150.5 17t-109.5 72.5t-50.5 158zM381 360q-8 -88 4 -141t49 -77.5t103 -24.5t112.5 24.5t82.5 77.5t63.5 141.5 t56.5 212.5q23 106 20.5 173t-23 105t-57 52.5t-85.5 14.5q-47 0 -90.5 -14.5t-80 -52.5t-66.5 -104.5t-52 -173.5q-29 -125 -37 -213zM1024 590h403q25 113 24 178.5t-21.5 98t-56.5 42t-83 9.5q-39 0 -76.5 -11.5t-71.5 -45.5t-63.5 -98.5t-54.5 -172.5z" />
<glyph unicode="&#x178;" d="M414 0l238 563l-8 916h211l-15 -715l602 715h191l-792 -916l-239 -563h-188zM843 1652l92 213h193l-92 -213h-193zM1204 1652l92 213h192l-92 -213h-192z" />
<glyph unicode="&#x2c6;" horiz-adv-x="569" d="M238 1190l266 289h188l144 -289h-164l-94 192l-177 -192h-163z" />
<glyph unicode="&#x2dc;" horiz-adv-x="569" d="M188 1184q29 94 93.5 157.5t167.5 63.5q41 0 76.5 -11.5t68.5 -25.5q33 -16 60.5 -27.5t52.5 -11.5q96 0 124 92h105q-14 -43 -40 -84t-58 -71q-33 -31 -74 -49.5t-90 -18.5q-33 0 -68 12.5t-71 26.5q-35 16 -70 27.5t-70 11.5t-67.5 -28.5t-44.5 -63.5h-95z" />
<glyph unicode="&#x2000;" horiz-adv-x="1012" />
<glyph unicode="&#x2001;" horiz-adv-x="2025" />
<glyph unicode="&#x2002;" horiz-adv-x="1012" />
<glyph unicode="&#x2003;" horiz-adv-x="2025" />
<glyph unicode="&#x2004;" horiz-adv-x="675" />
<glyph unicode="&#x2005;" horiz-adv-x="506" />
<glyph unicode="&#x2006;" horiz-adv-x="337" />
<glyph unicode="&#x2007;" horiz-adv-x="337" />
<glyph unicode="&#x2008;" horiz-adv-x="253" />
<glyph unicode="&#x2009;" horiz-adv-x="405" />
<glyph unicode="&#x200a;" horiz-adv-x="112" />
<glyph unicode="&#x2010;" horiz-adv-x="681" d="M217 479l33 158h450l-32 -158h-451z" />
<glyph unicode="&#x2011;" horiz-adv-x="681" d="M217 479l33 158h450l-32 -158h-451z" />
<glyph unicode="&#x2012;" horiz-adv-x="681" d="M217 479l33 158h450l-32 -158h-451z" />
<glyph unicode="&#x2013;" d="M106 498l25 114h1024l-25 -114h-1024z" />
<glyph unicode="&#x2014;" horiz-adv-x="2048" d="M106 498l25 114h2048l-25 -114h-2048z" />
<glyph unicode="&#x2018;" horiz-adv-x="454" d="M299 1071l254 408h141l-174 -408h-221z" />
<glyph unicode="&#x2019;" horiz-adv-x="454" d="M299 1071l174 408h221l-254 -408h-141z" />
<glyph unicode="&#x201a;" horiz-adv-x="454" d="M23 -227l176 407h221l-256 -407h-141z" />
<glyph unicode="&#x201c;" horiz-adv-x="909" d="M356 1069l254 408h142l-174 -408h-222zM698 1069l254 408h142l-174 -408h-222z" />
<glyph unicode="&#x201d;" horiz-adv-x="909" d="M356 1071l174 408h222l-254 -408h-142zM698 1071l174 408h222l-254 -408h-142z" />
<glyph unicode="&#x201e;" horiz-adv-x="909" d="M80 -227l176 407h221l-256 -407h-141zM422 -227l176 407h221l-256 -407h-141z" />
<glyph unicode="&#x2022;" horiz-adv-x="681" d="M183.5 618.5q-13.5 57.5 0.5 120.5q12 66 50 123.5t90.5 100.5t114 67.5t124.5 24.5q66 0 118 -24.5t86 -67.5t46 -100.5t0 -123.5q-14 -63 -51 -120.5t-89 -100.5t-114.5 -67.5t-128.5 -24.5q-63 0 -114.5 24.5t-85 67.5t-47 100.5z" />
<glyph unicode="&#x2026;" horiz-adv-x="2048" d="M246 0l45 213h192l-45 -213h-192zM928 0l45 213h192l-45 -213h-192zM1610 0l45 213h192l-45 -213h-192z" />
<glyph unicode="&#x202f;" horiz-adv-x="405" />
<glyph unicode="&#x2039;" horiz-adv-x="454" d="M166 553l276 401h156l-248 -401l76 -395h-160z" />
<glyph unicode="&#x203a;" horiz-adv-x="454" d="M94 158l244 395l-76 401h156l104 -401l-268 -395h-160z" />
<glyph unicode="&#x205f;" horiz-adv-x="506" />
<glyph unicode="&#x2122;" horiz-adv-x="1689" d="M285 1364l22 115h631l-23 -115h-243l-166 -772h-144l166 772h-243zM852 592l188 887h228l82 -660h4l354 660h223l-188 -887h-144l150 698h-4l-395 -698h-117l-84 698h-4l-150 -698h-143z" />
<glyph unicode="&#x25fc;" horiz-adv-x="1034" d="M0 0v1034h1034v-1034h-1034z" />
<glyph unicode="&#xfb01;" d="M178 0l193 907h-160l27 127h159l43 201q16 78 52 127t84.5 76.5t103.5 37t111 9.5q27 0 44 -1t33 -5l-24 -121q-66 4 -109 -6.5t-70.5 -32t-41 -50t-19.5 -59.5l-39 -176h209l-26 -127h-209l-193 -907h-168zM698 0l220 1034h167l-219 -1034h-168zM965 1298l36 181h189 l-37 -181h-188z" />
<glyph unicode="&#xfb02;" d="M178 0l193 907h-160l27 127h159l43 201q16 78 52 127t84.5 76.5t103.5 37t111 9.5q27 0 44 -1t33 -5l-24 -121q-66 4 -109 -6.5t-70.5 -32t-41 -50t-19.5 -59.5l-39 -176h209l-26 -127h-209l-193 -907h-168zM713 0l313 1479h168l-313 -1479h-168z" />
</font>
</defs>
</svg>
